%TF.GenerationSoftware,KiCad,Pcbnew,(6.0.5)*%
%TF.CreationDate,2022-06-29T10:50:51+01:00*%
%TF.ProjectId,PCB,5043422e-6b69-4636-9164-5f7063625858,rev?*%
%TF.SameCoordinates,Original*%
%TF.FileFunction,Legend,Bot*%
%TF.FilePolarity,Positive*%
%FSLAX46Y46*%
G04 Gerber Fmt 4.6, Leading zero omitted, Abs format (unit mm)*
G04 Created by KiCad (PCBNEW (6.0.5)) date 2022-06-29 10:50:51*
%MOMM*%
%LPD*%
G01*
G04 APERTURE LIST*
%ADD10C,0.150000*%
G04 APERTURE END LIST*
D10*
X146900000Y-95000000D02*
X150700000Y-98500000D01*
X182500000Y-98500000D02*
X191500000Y-107500000D01*
X191500000Y-107500000D02*
X225900000Y-107500000D01*
X134500000Y-95000000D02*
X146900000Y-95000000D01*
X150700000Y-98500000D02*
X182500000Y-98500000D01*
X126500000Y-59500000D02*
X126500000Y-87000000D01*
X126500000Y-87000000D02*
X134500000Y-95000000D01*
X218092976Y-118817142D02*
X218140595Y-118864761D01*
X218283452Y-118912380D01*
X218378690Y-118912380D01*
X218521547Y-118864761D01*
X218616785Y-118769523D01*
X218664404Y-118674285D01*
X218712023Y-118483809D01*
X218712023Y-118340952D01*
X218664404Y-118150476D01*
X218616785Y-118055238D01*
X218521547Y-117960000D01*
X218378690Y-117912380D01*
X218283452Y-117912380D01*
X218140595Y-117960000D01*
X218092976Y-118007619D01*
X217664404Y-118912380D02*
X217664404Y-118245714D01*
X217664404Y-117912380D02*
X217712023Y-117960000D01*
X217664404Y-118007619D01*
X217616785Y-117960000D01*
X217664404Y-117912380D01*
X217664404Y-118007619D01*
X217188214Y-118912380D02*
X217188214Y-118245714D01*
X217188214Y-118436190D02*
X217140595Y-118340952D01*
X217092976Y-118293333D01*
X216997738Y-118245714D01*
X216902500Y-118245714D01*
X216140595Y-118864761D02*
X216235833Y-118912380D01*
X216426309Y-118912380D01*
X216521547Y-118864761D01*
X216569166Y-118817142D01*
X216616785Y-118721904D01*
X216616785Y-118436190D01*
X216569166Y-118340952D01*
X216521547Y-118293333D01*
X216426309Y-118245714D01*
X216235833Y-118245714D01*
X216140595Y-118293333D01*
X215283452Y-118245714D02*
X215283452Y-118912380D01*
X215712023Y-118245714D02*
X215712023Y-118769523D01*
X215664404Y-118864761D01*
X215569166Y-118912380D01*
X215426309Y-118912380D01*
X215331071Y-118864761D01*
X215283452Y-118817142D01*
X214807261Y-118912380D02*
X214807261Y-118245714D01*
X214807261Y-117912380D02*
X214854880Y-117960000D01*
X214807261Y-118007619D01*
X214759642Y-117960000D01*
X214807261Y-117912380D01*
X214807261Y-118007619D01*
X214473928Y-118245714D02*
X214092976Y-118245714D01*
X214331071Y-117912380D02*
X214331071Y-118769523D01*
X214283452Y-118864761D01*
X214188214Y-118912380D01*
X214092976Y-118912380D01*
X212569166Y-118912380D02*
X212569166Y-118388571D01*
X212616785Y-118293333D01*
X212712023Y-118245714D01*
X212902500Y-118245714D01*
X212997738Y-118293333D01*
X212569166Y-118864761D02*
X212664404Y-118912380D01*
X212902500Y-118912380D01*
X212997738Y-118864761D01*
X213045357Y-118769523D01*
X213045357Y-118674285D01*
X212997738Y-118579047D01*
X212902500Y-118531428D01*
X212664404Y-118531428D01*
X212569166Y-118483809D01*
X212092976Y-118245714D02*
X212092976Y-118912380D01*
X212092976Y-118340952D02*
X212045357Y-118293333D01*
X211950119Y-118245714D01*
X211807261Y-118245714D01*
X211712023Y-118293333D01*
X211664404Y-118388571D01*
X211664404Y-118912380D01*
X210759642Y-118912380D02*
X210759642Y-117912380D01*
X210759642Y-118864761D02*
X210854880Y-118912380D01*
X211045357Y-118912380D01*
X211140595Y-118864761D01*
X211188214Y-118817142D01*
X211235833Y-118721904D01*
X211235833Y-118436190D01*
X211188214Y-118340952D01*
X211140595Y-118293333D01*
X211045357Y-118245714D01*
X210854880Y-118245714D01*
X210759642Y-118293333D01*
X209521547Y-118912380D02*
X209521547Y-117912380D01*
X209140595Y-117912380D01*
X209045357Y-117960000D01*
X208997738Y-118007619D01*
X208950119Y-118102857D01*
X208950119Y-118245714D01*
X208997738Y-118340952D01*
X209045357Y-118388571D01*
X209140595Y-118436190D01*
X209521547Y-118436190D01*
X207950119Y-118817142D02*
X207997738Y-118864761D01*
X208140595Y-118912380D01*
X208235833Y-118912380D01*
X208378690Y-118864761D01*
X208473928Y-118769523D01*
X208521547Y-118674285D01*
X208569166Y-118483809D01*
X208569166Y-118340952D01*
X208521547Y-118150476D01*
X208473928Y-118055238D01*
X208378690Y-117960000D01*
X208235833Y-117912380D01*
X208140595Y-117912380D01*
X207997738Y-117960000D01*
X207950119Y-118007619D01*
X207188214Y-118388571D02*
X207045357Y-118436190D01*
X206997738Y-118483809D01*
X206950119Y-118579047D01*
X206950119Y-118721904D01*
X206997738Y-118817142D01*
X207045357Y-118864761D01*
X207140595Y-118912380D01*
X207521547Y-118912380D01*
X207521547Y-117912380D01*
X207188214Y-117912380D01*
X207092976Y-117960000D01*
X207045357Y-118007619D01*
X206997738Y-118102857D01*
X206997738Y-118198095D01*
X207045357Y-118293333D01*
X207092976Y-118340952D01*
X207188214Y-118388571D01*
X207521547Y-118388571D01*
X205331071Y-118912380D02*
X205331071Y-117912380D01*
X205331071Y-118864761D02*
X205426309Y-118912380D01*
X205616785Y-118912380D01*
X205712023Y-118864761D01*
X205759642Y-118817142D01*
X205807261Y-118721904D01*
X205807261Y-118436190D01*
X205759642Y-118340952D01*
X205712023Y-118293333D01*
X205616785Y-118245714D01*
X205426309Y-118245714D01*
X205331071Y-118293333D01*
X204473928Y-118864761D02*
X204569166Y-118912380D01*
X204759642Y-118912380D01*
X204854880Y-118864761D01*
X204902500Y-118769523D01*
X204902500Y-118388571D01*
X204854880Y-118293333D01*
X204759642Y-118245714D01*
X204569166Y-118245714D01*
X204473928Y-118293333D01*
X204426309Y-118388571D01*
X204426309Y-118483809D01*
X204902500Y-118579047D01*
X204092976Y-118245714D02*
X203854880Y-118912380D01*
X203616785Y-118245714D01*
X202854880Y-118864761D02*
X202950119Y-118912380D01*
X203140595Y-118912380D01*
X203235833Y-118864761D01*
X203283452Y-118769523D01*
X203283452Y-118388571D01*
X203235833Y-118293333D01*
X203140595Y-118245714D01*
X202950119Y-118245714D01*
X202854880Y-118293333D01*
X202807261Y-118388571D01*
X202807261Y-118483809D01*
X203283452Y-118579047D01*
X202235833Y-118912380D02*
X202331071Y-118864761D01*
X202378690Y-118769523D01*
X202378690Y-117912380D01*
X201712023Y-118912380D02*
X201807261Y-118864761D01*
X201854880Y-118817142D01*
X201902500Y-118721904D01*
X201902500Y-118436190D01*
X201854880Y-118340952D01*
X201807261Y-118293333D01*
X201712023Y-118245714D01*
X201569166Y-118245714D01*
X201473928Y-118293333D01*
X201426309Y-118340952D01*
X201378690Y-118436190D01*
X201378690Y-118721904D01*
X201426309Y-118817142D01*
X201473928Y-118864761D01*
X201569166Y-118912380D01*
X201712023Y-118912380D01*
X200950119Y-118245714D02*
X200950119Y-119245714D01*
X200950119Y-118293333D02*
X200854880Y-118245714D01*
X200664404Y-118245714D01*
X200569166Y-118293333D01*
X200521547Y-118340952D01*
X200473928Y-118436190D01*
X200473928Y-118721904D01*
X200521547Y-118817142D01*
X200569166Y-118864761D01*
X200664404Y-118912380D01*
X200854880Y-118912380D01*
X200950119Y-118864761D01*
X199664404Y-118864761D02*
X199759642Y-118912380D01*
X199950119Y-118912380D01*
X200045357Y-118864761D01*
X200092976Y-118769523D01*
X200092976Y-118388571D01*
X200045357Y-118293333D01*
X199950119Y-118245714D01*
X199759642Y-118245714D01*
X199664404Y-118293333D01*
X199616785Y-118388571D01*
X199616785Y-118483809D01*
X200092976Y-118579047D01*
X198759642Y-118912380D02*
X198759642Y-117912380D01*
X198759642Y-118864761D02*
X198854880Y-118912380D01*
X199045357Y-118912380D01*
X199140595Y-118864761D01*
X199188214Y-118817142D01*
X199235833Y-118721904D01*
X199235833Y-118436190D01*
X199188214Y-118340952D01*
X199140595Y-118293333D01*
X199045357Y-118245714D01*
X198854880Y-118245714D01*
X198759642Y-118293333D01*
X197521547Y-118912380D02*
X197521547Y-117912380D01*
X197521547Y-118293333D02*
X197426309Y-118245714D01*
X197235833Y-118245714D01*
X197140595Y-118293333D01*
X197092976Y-118340952D01*
X197045357Y-118436190D01*
X197045357Y-118721904D01*
X197092976Y-118817142D01*
X197140595Y-118864761D01*
X197235833Y-118912380D01*
X197426309Y-118912380D01*
X197521547Y-118864761D01*
X196712023Y-118245714D02*
X196473928Y-118912380D01*
X196235833Y-118245714D02*
X196473928Y-118912380D01*
X196569166Y-119150476D01*
X196616785Y-119198095D01*
X196712023Y-119245714D01*
X195854880Y-118817142D02*
X195807261Y-118864761D01*
X195854880Y-118912380D01*
X195902500Y-118864761D01*
X195854880Y-118817142D01*
X195854880Y-118912380D01*
X195854880Y-118293333D02*
X195807261Y-118340952D01*
X195854880Y-118388571D01*
X195902500Y-118340952D01*
X195854880Y-118293333D01*
X195854880Y-118388571D01*
X218664404Y-120522380D02*
X218664404Y-119522380D01*
X218426309Y-119522380D01*
X218283452Y-119570000D01*
X218188214Y-119665238D01*
X218140595Y-119760476D01*
X218092976Y-119950952D01*
X218092976Y-120093809D01*
X218140595Y-120284285D01*
X218188214Y-120379523D01*
X218283452Y-120474761D01*
X218426309Y-120522380D01*
X218664404Y-120522380D01*
X217235833Y-120522380D02*
X217235833Y-119998571D01*
X217283452Y-119903333D01*
X217378690Y-119855714D01*
X217569166Y-119855714D01*
X217664404Y-119903333D01*
X217235833Y-120474761D02*
X217331071Y-120522380D01*
X217569166Y-120522380D01*
X217664404Y-120474761D01*
X217712023Y-120379523D01*
X217712023Y-120284285D01*
X217664404Y-120189047D01*
X217569166Y-120141428D01*
X217331071Y-120141428D01*
X217235833Y-120093809D01*
X216854880Y-119855714D02*
X216616785Y-120522380D01*
X216378690Y-119855714D01*
X215997738Y-120522380D02*
X215997738Y-119855714D01*
X215997738Y-119522380D02*
X216045357Y-119570000D01*
X215997738Y-119617619D01*
X215950119Y-119570000D01*
X215997738Y-119522380D01*
X215997738Y-119617619D01*
X215092976Y-120522380D02*
X215092976Y-119522380D01*
X215092976Y-120474761D02*
X215188214Y-120522380D01*
X215378690Y-120522380D01*
X215473928Y-120474761D01*
X215521547Y-120427142D01*
X215569166Y-120331904D01*
X215569166Y-120046190D01*
X215521547Y-119950952D01*
X215473928Y-119903333D01*
X215378690Y-119855714D01*
X215188214Y-119855714D01*
X215092976Y-119903333D01*
X213283452Y-120522380D02*
X213616785Y-120046190D01*
X213854880Y-120522380D02*
X213854880Y-119522380D01*
X213473928Y-119522380D01*
X213378690Y-119570000D01*
X213331071Y-119617619D01*
X213283452Y-119712857D01*
X213283452Y-119855714D01*
X213331071Y-119950952D01*
X213378690Y-119998571D01*
X213473928Y-120046190D01*
X213854880Y-120046190D01*
X212426309Y-120522380D02*
X212426309Y-119998571D01*
X212473928Y-119903333D01*
X212569166Y-119855714D01*
X212759642Y-119855714D01*
X212854880Y-119903333D01*
X212426309Y-120474761D02*
X212521547Y-120522380D01*
X212759642Y-120522380D01*
X212854880Y-120474761D01*
X212902500Y-120379523D01*
X212902500Y-120284285D01*
X212854880Y-120189047D01*
X212759642Y-120141428D01*
X212521547Y-120141428D01*
X212426309Y-120093809D01*
X211950119Y-120522380D02*
X211950119Y-119855714D01*
X211950119Y-119522380D02*
X211997738Y-119570000D01*
X211950119Y-119617619D01*
X211902500Y-119570000D01*
X211950119Y-119522380D01*
X211950119Y-119617619D01*
X211473928Y-119855714D02*
X211473928Y-120522380D01*
X211473928Y-119950952D02*
X211426309Y-119903333D01*
X211331071Y-119855714D01*
X211188214Y-119855714D01*
X211092976Y-119903333D01*
X211045357Y-119998571D01*
X211045357Y-120522380D01*
X210569166Y-120522380D02*
X210569166Y-119522380D01*
X210140595Y-120522380D02*
X210140595Y-119998571D01*
X210188214Y-119903333D01*
X210283452Y-119855714D01*
X210426309Y-119855714D01*
X210521547Y-119903333D01*
X210569166Y-119950952D01*
X209521547Y-120522380D02*
X209616785Y-120474761D01*
X209664404Y-120427142D01*
X209712023Y-120331904D01*
X209712023Y-120046190D01*
X209664404Y-119950952D01*
X209616785Y-119903333D01*
X209521547Y-119855714D01*
X209378690Y-119855714D01*
X209283452Y-119903333D01*
X209235833Y-119950952D01*
X209188214Y-120046190D01*
X209188214Y-120331904D01*
X209235833Y-120427142D01*
X209283452Y-120474761D01*
X209378690Y-120522380D01*
X209521547Y-120522380D01*
X218140595Y-121180000D02*
X218235833Y-121132380D01*
X218378690Y-121132380D01*
X218521547Y-121180000D01*
X218616785Y-121275238D01*
X218664404Y-121370476D01*
X218712023Y-121560952D01*
X218712023Y-121703809D01*
X218664404Y-121894285D01*
X218616785Y-121989523D01*
X218521547Y-122084761D01*
X218378690Y-122132380D01*
X218283452Y-122132380D01*
X218140595Y-122084761D01*
X218092976Y-122037142D01*
X218092976Y-121703809D01*
X218283452Y-121703809D01*
X217235833Y-121465714D02*
X217235833Y-122132380D01*
X217664404Y-121465714D02*
X217664404Y-121989523D01*
X217616785Y-122084761D01*
X217521547Y-122132380D01*
X217378690Y-122132380D01*
X217283452Y-122084761D01*
X217235833Y-122037142D01*
X216807261Y-122084761D02*
X216712023Y-122132380D01*
X216521547Y-122132380D01*
X216426309Y-122084761D01*
X216378690Y-121989523D01*
X216378690Y-121941904D01*
X216426309Y-121846666D01*
X216521547Y-121799047D01*
X216664404Y-121799047D01*
X216759642Y-121751428D01*
X216807261Y-121656190D01*
X216807261Y-121608571D01*
X216759642Y-121513333D01*
X216664404Y-121465714D01*
X216521547Y-121465714D01*
X216426309Y-121513333D01*
X216092976Y-121465714D02*
X215712023Y-121465714D01*
X215950119Y-121132380D02*
X215950119Y-121989523D01*
X215902500Y-122084761D01*
X215807261Y-122132380D01*
X215712023Y-122132380D01*
X214950119Y-122132380D02*
X214950119Y-121608571D01*
X214997738Y-121513333D01*
X215092976Y-121465714D01*
X215283452Y-121465714D01*
X215378690Y-121513333D01*
X214950119Y-122084761D02*
X215045357Y-122132380D01*
X215283452Y-122132380D01*
X215378690Y-122084761D01*
X215426309Y-121989523D01*
X215426309Y-121894285D01*
X215378690Y-121799047D01*
X215283452Y-121751428D01*
X215045357Y-121751428D01*
X214950119Y-121703809D01*
X214569166Y-121465714D02*
X214331071Y-122132380D01*
X214092976Y-121465714D01*
X213569166Y-122132380D02*
X213664404Y-122084761D01*
X213712023Y-122037142D01*
X213759642Y-121941904D01*
X213759642Y-121656190D01*
X213712023Y-121560952D01*
X213664404Y-121513333D01*
X213569166Y-121465714D01*
X213426309Y-121465714D01*
X213331071Y-121513333D01*
X213283452Y-121560952D01*
X213235833Y-121656190D01*
X213235833Y-121941904D01*
X213283452Y-122037142D01*
X213331071Y-122084761D01*
X213426309Y-122132380D01*
X213569166Y-122132380D01*
X212092976Y-122084761D02*
X211950119Y-122132380D01*
X211712023Y-122132380D01*
X211616785Y-122084761D01*
X211569166Y-122037142D01*
X211521547Y-121941904D01*
X211521547Y-121846666D01*
X211569166Y-121751428D01*
X211616785Y-121703809D01*
X211712023Y-121656190D01*
X211902500Y-121608571D01*
X211997738Y-121560952D01*
X212045357Y-121513333D01*
X212092976Y-121418095D01*
X212092976Y-121322857D01*
X212045357Y-121227619D01*
X211997738Y-121180000D01*
X211902500Y-121132380D01*
X211664404Y-121132380D01*
X211521547Y-121180000D01*
X210664404Y-122132380D02*
X210664404Y-121608571D01*
X210712023Y-121513333D01*
X210807261Y-121465714D01*
X210997738Y-121465714D01*
X211092976Y-121513333D01*
X210664404Y-122084761D02*
X210759642Y-122132380D01*
X210997738Y-122132380D01*
X211092976Y-122084761D01*
X211140595Y-121989523D01*
X211140595Y-121894285D01*
X211092976Y-121799047D01*
X210997738Y-121751428D01*
X210759642Y-121751428D01*
X210664404Y-121703809D01*
X210188214Y-121465714D02*
X210188214Y-122132380D01*
X210188214Y-121560952D02*
X210140595Y-121513333D01*
X210045357Y-121465714D01*
X209902500Y-121465714D01*
X209807261Y-121513333D01*
X209759642Y-121608571D01*
X209759642Y-122132380D01*
X209426309Y-121465714D02*
X209045357Y-121465714D01*
X209283452Y-121132380D02*
X209283452Y-121989523D01*
X209235833Y-122084761D01*
X209140595Y-122132380D01*
X209045357Y-122132380D01*
X208569166Y-122132380D02*
X208664404Y-122084761D01*
X208712023Y-122037142D01*
X208759642Y-121941904D01*
X208759642Y-121656190D01*
X208712023Y-121560952D01*
X208664404Y-121513333D01*
X208569166Y-121465714D01*
X208426309Y-121465714D01*
X208331071Y-121513333D01*
X208283452Y-121560952D01*
X208235833Y-121656190D01*
X208235833Y-121941904D01*
X208283452Y-122037142D01*
X208331071Y-122084761D01*
X208426309Y-122132380D01*
X208569166Y-122132380D01*
X207854880Y-122084761D02*
X207759642Y-122132380D01*
X207569166Y-122132380D01*
X207473928Y-122084761D01*
X207426309Y-121989523D01*
X207426309Y-121941904D01*
X207473928Y-121846666D01*
X207569166Y-121799047D01*
X207712023Y-121799047D01*
X207807261Y-121751428D01*
X207854880Y-121656190D01*
X207854880Y-121608571D01*
X207807261Y-121513333D01*
X207712023Y-121465714D01*
X207569166Y-121465714D01*
X207473928Y-121513333D01*
X218664404Y-123742380D02*
X218664404Y-122742380D01*
X218188214Y-123075714D02*
X218188214Y-123742380D01*
X218188214Y-123170952D02*
X218140595Y-123123333D01*
X218045357Y-123075714D01*
X217902500Y-123075714D01*
X217807261Y-123123333D01*
X217759642Y-123218571D01*
X217759642Y-123742380D01*
X216902500Y-123694761D02*
X216997738Y-123742380D01*
X217188214Y-123742380D01*
X217283452Y-123694761D01*
X217331071Y-123599523D01*
X217331071Y-123218571D01*
X217283452Y-123123333D01*
X217188214Y-123075714D01*
X216997738Y-123075714D01*
X216902500Y-123123333D01*
X216854880Y-123218571D01*
X216854880Y-123313809D01*
X217331071Y-123409047D01*
X217283452Y-122837619D02*
X217092976Y-122694761D01*
X216902500Y-122837619D01*
X216473928Y-123694761D02*
X216378690Y-123742380D01*
X216188214Y-123742380D01*
X216092976Y-123694761D01*
X216045357Y-123599523D01*
X216045357Y-123551904D01*
X216092976Y-123456666D01*
X216188214Y-123409047D01*
X216331071Y-123409047D01*
X216426309Y-123361428D01*
X216473928Y-123266190D01*
X216473928Y-123218571D01*
X216426309Y-123123333D01*
X216331071Y-123075714D01*
X216188214Y-123075714D01*
X216092976Y-123123333D01*
X214521547Y-123218571D02*
X214378690Y-123266190D01*
X214331071Y-123313809D01*
X214283452Y-123409047D01*
X214283452Y-123551904D01*
X214331071Y-123647142D01*
X214378690Y-123694761D01*
X214473928Y-123742380D01*
X214854880Y-123742380D01*
X214854880Y-122742380D01*
X214521547Y-122742380D01*
X214426309Y-122790000D01*
X214378690Y-122837619D01*
X214331071Y-122932857D01*
X214331071Y-123028095D01*
X214378690Y-123123333D01*
X214426309Y-123170952D01*
X214521547Y-123218571D01*
X214854880Y-123218571D01*
X213854880Y-123742380D02*
X213854880Y-123075714D01*
X213854880Y-123266190D02*
X213807261Y-123170952D01*
X213759642Y-123123333D01*
X213664404Y-123075714D01*
X213569166Y-123075714D01*
X212807261Y-123742380D02*
X212807261Y-123218571D01*
X212854880Y-123123333D01*
X212950119Y-123075714D01*
X213140595Y-123075714D01*
X213235833Y-123123333D01*
X212807261Y-123694761D02*
X212902500Y-123742380D01*
X213140595Y-123742380D01*
X213235833Y-123694761D01*
X213283452Y-123599523D01*
X213283452Y-123504285D01*
X213235833Y-123409047D01*
X213140595Y-123361428D01*
X212902500Y-123361428D01*
X212807261Y-123313809D01*
X212331071Y-123075714D02*
X212331071Y-123742380D01*
X212331071Y-123170952D02*
X212283452Y-123123333D01*
X212188214Y-123075714D01*
X212045357Y-123075714D01*
X211950119Y-123123333D01*
X211902500Y-123218571D01*
X211902500Y-123742380D01*
X210997738Y-123742380D02*
X210997738Y-122742380D01*
X210997738Y-123694761D02*
X211092976Y-123742380D01*
X211283452Y-123742380D01*
X211378690Y-123694761D01*
X211426309Y-123647142D01*
X211473928Y-123551904D01*
X211473928Y-123266190D01*
X211426309Y-123170952D01*
X211378690Y-123123333D01*
X211283452Y-123075714D01*
X211092976Y-123075714D01*
X210997738Y-123123333D01*
X210092976Y-123742380D02*
X210092976Y-123218571D01*
X210140595Y-123123333D01*
X210235833Y-123075714D01*
X210426309Y-123075714D01*
X210521547Y-123123333D01*
X210092976Y-123694761D02*
X210188214Y-123742380D01*
X210426309Y-123742380D01*
X210521547Y-123694761D01*
X210569166Y-123599523D01*
X210569166Y-123504285D01*
X210521547Y-123409047D01*
X210426309Y-123361428D01*
X210188214Y-123361428D01*
X210092976Y-123313809D01*
X210569166Y-122837619D02*
X210521547Y-122790000D01*
X210426309Y-122742380D01*
X210235833Y-122837619D01*
X210140595Y-122790000D01*
X210092976Y-122742380D01*
X209473928Y-123742380D02*
X209569166Y-123694761D01*
X209616785Y-123647142D01*
X209664404Y-123551904D01*
X209664404Y-123266190D01*
X209616785Y-123170952D01*
X209569166Y-123123333D01*
X209473928Y-123075714D01*
X209331071Y-123075714D01*
X209235833Y-123123333D01*
X209188214Y-123170952D01*
X209140595Y-123266190D01*
X209140595Y-123551904D01*
X209188214Y-123647142D01*
X209235833Y-123694761D01*
X209331071Y-123742380D01*
X209473928Y-123742380D01*
X218378690Y-124352380D02*
X218378690Y-125066666D01*
X218426309Y-125209523D01*
X218521547Y-125304761D01*
X218664404Y-125352380D01*
X218759642Y-125352380D01*
X217759642Y-125352380D02*
X217854880Y-125304761D01*
X217902500Y-125257142D01*
X217950119Y-125161904D01*
X217950119Y-124876190D01*
X217902500Y-124780952D01*
X217854880Y-124733333D01*
X217759642Y-124685714D01*
X217616785Y-124685714D01*
X217521547Y-124733333D01*
X217473928Y-124780952D01*
X217426309Y-124876190D01*
X217426309Y-125161904D01*
X217473928Y-125257142D01*
X217521547Y-125304761D01*
X217616785Y-125352380D01*
X217759642Y-125352380D01*
X216997738Y-125352380D02*
X216997738Y-124685714D01*
X216997738Y-124876190D02*
X216950119Y-124780952D01*
X216902500Y-124733333D01*
X216807261Y-124685714D01*
X216712023Y-124685714D01*
X215950119Y-124685714D02*
X215950119Y-125495238D01*
X215997738Y-125590476D01*
X216045357Y-125638095D01*
X216140595Y-125685714D01*
X216283452Y-125685714D01*
X216378690Y-125638095D01*
X215950119Y-125304761D02*
X216045357Y-125352380D01*
X216235833Y-125352380D01*
X216331071Y-125304761D01*
X216378690Y-125257142D01*
X216426309Y-125161904D01*
X216426309Y-124876190D01*
X216378690Y-124780952D01*
X216331071Y-124733333D01*
X216235833Y-124685714D01*
X216045357Y-124685714D01*
X215950119Y-124733333D01*
X215092976Y-125304761D02*
X215188214Y-125352380D01*
X215378690Y-125352380D01*
X215473928Y-125304761D01*
X215521547Y-125209523D01*
X215521547Y-124828571D01*
X215473928Y-124733333D01*
X215378690Y-124685714D01*
X215188214Y-124685714D01*
X215092976Y-124733333D01*
X215045357Y-124828571D01*
X215045357Y-124923809D01*
X215521547Y-125019047D01*
X213283452Y-125352380D02*
X213616785Y-124876190D01*
X213854880Y-125352380D02*
X213854880Y-124352380D01*
X213473928Y-124352380D01*
X213378690Y-124400000D01*
X213331071Y-124447619D01*
X213283452Y-124542857D01*
X213283452Y-124685714D01*
X213331071Y-124780952D01*
X213378690Y-124828571D01*
X213473928Y-124876190D01*
X213854880Y-124876190D01*
X212854880Y-125352380D02*
X212854880Y-124685714D01*
X212854880Y-124352380D02*
X212902500Y-124400000D01*
X212854880Y-124447619D01*
X212807261Y-124400000D01*
X212854880Y-124352380D01*
X212854880Y-124447619D01*
X212378690Y-125352380D02*
X212378690Y-124352380D01*
X212378690Y-124733333D02*
X212283452Y-124685714D01*
X212092976Y-124685714D01*
X211997738Y-124733333D01*
X211950119Y-124780952D01*
X211902500Y-124876190D01*
X211902500Y-125161904D01*
X211950119Y-125257142D01*
X211997738Y-125304761D01*
X212092976Y-125352380D01*
X212283452Y-125352380D01*
X212378690Y-125304761D01*
X211092976Y-125304761D02*
X211188214Y-125352380D01*
X211378690Y-125352380D01*
X211473928Y-125304761D01*
X211521547Y-125209523D01*
X211521547Y-124828571D01*
X211473928Y-124733333D01*
X211378690Y-124685714D01*
X211188214Y-124685714D01*
X211092976Y-124733333D01*
X211045357Y-124828571D01*
X211045357Y-124923809D01*
X211521547Y-125019047D01*
X210616785Y-125352380D02*
X210616785Y-124685714D01*
X210616785Y-124352380D02*
X210664404Y-124400000D01*
X210616785Y-124447619D01*
X210569166Y-124400000D01*
X210616785Y-124352380D01*
X210616785Y-124447619D01*
X210140595Y-125352380D02*
X210140595Y-124685714D01*
X210140595Y-124876190D02*
X210092976Y-124780952D01*
X210045357Y-124733333D01*
X209950119Y-124685714D01*
X209854880Y-124685714D01*
X209378690Y-125352380D02*
X209473928Y-125304761D01*
X209521547Y-125257142D01*
X209569166Y-125161904D01*
X209569166Y-124876190D01*
X209521547Y-124780952D01*
X209473928Y-124733333D01*
X209378690Y-124685714D01*
X209235833Y-124685714D01*
X209140595Y-124733333D01*
X209092976Y-124780952D01*
X209045357Y-124876190D01*
X209045357Y-125161904D01*
X209092976Y-125257142D01*
X209140595Y-125304761D01*
X209235833Y-125352380D01*
X209378690Y-125352380D01*
X218378690Y-125962380D02*
X218378690Y-126676666D01*
X218426309Y-126819523D01*
X218521547Y-126914761D01*
X218664404Y-126962380D01*
X218759642Y-126962380D01*
X217759642Y-126962380D02*
X217854880Y-126914761D01*
X217902500Y-126867142D01*
X217950119Y-126771904D01*
X217950119Y-126486190D01*
X217902500Y-126390952D01*
X217854880Y-126343333D01*
X217759642Y-126295714D01*
X217616785Y-126295714D01*
X217521547Y-126343333D01*
X217473928Y-126390952D01*
X217426309Y-126486190D01*
X217426309Y-126771904D01*
X217473928Y-126867142D01*
X217521547Y-126914761D01*
X217616785Y-126962380D01*
X217759642Y-126962380D01*
X216997738Y-126962380D02*
X216997738Y-126295714D01*
X216997738Y-126486190D02*
X216950119Y-126390952D01*
X216902500Y-126343333D01*
X216807261Y-126295714D01*
X216712023Y-126295714D01*
X215950119Y-126295714D02*
X215950119Y-127105238D01*
X215997738Y-127200476D01*
X216045357Y-127248095D01*
X216140595Y-127295714D01*
X216283452Y-127295714D01*
X216378690Y-127248095D01*
X215950119Y-126914761D02*
X216045357Y-126962380D01*
X216235833Y-126962380D01*
X216331071Y-126914761D01*
X216378690Y-126867142D01*
X216426309Y-126771904D01*
X216426309Y-126486190D01*
X216378690Y-126390952D01*
X216331071Y-126343333D01*
X216235833Y-126295714D01*
X216045357Y-126295714D01*
X215950119Y-126343333D01*
X215092976Y-126914761D02*
X215188214Y-126962380D01*
X215378690Y-126962380D01*
X215473928Y-126914761D01*
X215521547Y-126819523D01*
X215521547Y-126438571D01*
X215473928Y-126343333D01*
X215378690Y-126295714D01*
X215188214Y-126295714D01*
X215092976Y-126343333D01*
X215045357Y-126438571D01*
X215045357Y-126533809D01*
X215521547Y-126629047D01*
X213854880Y-126962380D02*
X213854880Y-125962380D01*
X213473928Y-125962380D01*
X213378690Y-126010000D01*
X213331071Y-126057619D01*
X213283452Y-126152857D01*
X213283452Y-126295714D01*
X213331071Y-126390952D01*
X213378690Y-126438571D01*
X213473928Y-126486190D01*
X213854880Y-126486190D01*
X212426309Y-126962380D02*
X212426309Y-126438571D01*
X212473928Y-126343333D01*
X212569166Y-126295714D01*
X212759642Y-126295714D01*
X212854880Y-126343333D01*
X212426309Y-126914761D02*
X212521547Y-126962380D01*
X212759642Y-126962380D01*
X212854880Y-126914761D01*
X212902500Y-126819523D01*
X212902500Y-126724285D01*
X212854880Y-126629047D01*
X212759642Y-126581428D01*
X212521547Y-126581428D01*
X212426309Y-126533809D01*
X211950119Y-126962380D02*
X211950119Y-126295714D01*
X211950119Y-125962380D02*
X211997738Y-126010000D01*
X211950119Y-126057619D01*
X211902500Y-126010000D01*
X211950119Y-125962380D01*
X211950119Y-126057619D01*
X211521547Y-126914761D02*
X211426309Y-126962380D01*
X211235833Y-126962380D01*
X211140595Y-126914761D01*
X211092976Y-126819523D01*
X211092976Y-126771904D01*
X211140595Y-126676666D01*
X211235833Y-126629047D01*
X211378690Y-126629047D01*
X211473928Y-126581428D01*
X211521547Y-126486190D01*
X211521547Y-126438571D01*
X211473928Y-126343333D01*
X211378690Y-126295714D01*
X211235833Y-126295714D01*
X211140595Y-126343333D01*
X218664404Y-128572380D02*
X218664404Y-127572380D01*
X218331071Y-128286666D01*
X217997738Y-127572380D01*
X217997738Y-128572380D01*
X217092976Y-128572380D02*
X217092976Y-128048571D01*
X217140595Y-127953333D01*
X217235833Y-127905714D01*
X217426309Y-127905714D01*
X217521547Y-127953333D01*
X217092976Y-128524761D02*
X217188214Y-128572380D01*
X217426309Y-128572380D01*
X217521547Y-128524761D01*
X217569166Y-128429523D01*
X217569166Y-128334285D01*
X217521547Y-128239047D01*
X217426309Y-128191428D01*
X217188214Y-128191428D01*
X217092976Y-128143809D01*
X216616785Y-128572380D02*
X216616785Y-127905714D01*
X216616785Y-128096190D02*
X216569166Y-128000952D01*
X216521547Y-127953333D01*
X216426309Y-127905714D01*
X216331071Y-127905714D01*
X215569166Y-127905714D02*
X215569166Y-128715238D01*
X215616785Y-128810476D01*
X215664404Y-128858095D01*
X215759642Y-128905714D01*
X215902500Y-128905714D01*
X215997738Y-128858095D01*
X215569166Y-128524761D02*
X215664404Y-128572380D01*
X215854880Y-128572380D01*
X215950119Y-128524761D01*
X215997738Y-128477142D01*
X216045357Y-128381904D01*
X216045357Y-128096190D01*
X215997738Y-128000952D01*
X215950119Y-127953333D01*
X215854880Y-127905714D01*
X215664404Y-127905714D01*
X215569166Y-127953333D01*
X214664404Y-128572380D02*
X214664404Y-128048571D01*
X214712023Y-127953333D01*
X214807261Y-127905714D01*
X214997738Y-127905714D01*
X215092976Y-127953333D01*
X214664404Y-128524761D02*
X214759642Y-128572380D01*
X214997738Y-128572380D01*
X215092976Y-128524761D01*
X215140595Y-128429523D01*
X215140595Y-128334285D01*
X215092976Y-128239047D01*
X214997738Y-128191428D01*
X214759642Y-128191428D01*
X214664404Y-128143809D01*
X214188214Y-128572380D02*
X214188214Y-127905714D01*
X214188214Y-128096190D02*
X214140595Y-128000952D01*
X214092976Y-127953333D01*
X213997738Y-127905714D01*
X213902500Y-127905714D01*
X213569166Y-128572380D02*
X213569166Y-127905714D01*
X213569166Y-127572380D02*
X213616785Y-127620000D01*
X213569166Y-127667619D01*
X213521547Y-127620000D01*
X213569166Y-127572380D01*
X213569166Y-127667619D01*
X212664404Y-128572380D02*
X212664404Y-127572380D01*
X212664404Y-128524761D02*
X212759642Y-128572380D01*
X212950119Y-128572380D01*
X213045357Y-128524761D01*
X213092976Y-128477142D01*
X213140595Y-128381904D01*
X213140595Y-128096190D01*
X213092976Y-128000952D01*
X213045357Y-127953333D01*
X212950119Y-127905714D01*
X212759642Y-127905714D01*
X212664404Y-127953333D01*
X211759642Y-128572380D02*
X211759642Y-128048571D01*
X211807261Y-127953333D01*
X211902500Y-127905714D01*
X212092976Y-127905714D01*
X212188214Y-127953333D01*
X211759642Y-128524761D02*
X211854880Y-128572380D01*
X212092976Y-128572380D01*
X212188214Y-128524761D01*
X212235833Y-128429523D01*
X212235833Y-128334285D01*
X212188214Y-128239047D01*
X212092976Y-128191428D01*
X211854880Y-128191428D01*
X211759642Y-128143809D01*
X210045357Y-128572380D02*
X210521547Y-128572380D01*
X210521547Y-127572380D01*
X209331071Y-128524761D02*
X209426309Y-128572380D01*
X209616785Y-128572380D01*
X209712023Y-128524761D01*
X209759642Y-128429523D01*
X209759642Y-128048571D01*
X209712023Y-127953333D01*
X209616785Y-127905714D01*
X209426309Y-127905714D01*
X209331071Y-127953333D01*
X209283452Y-128048571D01*
X209283452Y-128143809D01*
X209759642Y-128239047D01*
X208426309Y-128572380D02*
X208426309Y-128048571D01*
X208473928Y-127953333D01*
X208569166Y-127905714D01*
X208759642Y-127905714D01*
X208854880Y-127953333D01*
X208426309Y-128524761D02*
X208521547Y-128572380D01*
X208759642Y-128572380D01*
X208854880Y-128524761D01*
X208902500Y-128429523D01*
X208902500Y-128334285D01*
X208854880Y-128239047D01*
X208759642Y-128191428D01*
X208521547Y-128191428D01*
X208426309Y-128143809D01*
X207807261Y-128572380D02*
X207902500Y-128524761D01*
X207950119Y-128429523D01*
X207950119Y-127572380D01*
X218092976Y-130182380D02*
X218426309Y-129706190D01*
X218664404Y-130182380D02*
X218664404Y-129182380D01*
X218283452Y-129182380D01*
X218188214Y-129230000D01*
X218140595Y-129277619D01*
X218092976Y-129372857D01*
X218092976Y-129515714D01*
X218140595Y-129610952D01*
X218188214Y-129658571D01*
X218283452Y-129706190D01*
X218664404Y-129706190D01*
X217521547Y-130182380D02*
X217616785Y-130134761D01*
X217664404Y-130087142D01*
X217712023Y-129991904D01*
X217712023Y-129706190D01*
X217664404Y-129610952D01*
X217616785Y-129563333D01*
X217521547Y-129515714D01*
X217378690Y-129515714D01*
X217283452Y-129563333D01*
X217235833Y-129610952D01*
X217188214Y-129706190D01*
X217188214Y-129991904D01*
X217235833Y-130087142D01*
X217283452Y-130134761D01*
X217378690Y-130182380D01*
X217521547Y-130182380D01*
X216331071Y-130182380D02*
X216331071Y-129182380D01*
X216331071Y-130134761D02*
X216426309Y-130182380D01*
X216616785Y-130182380D01*
X216712023Y-130134761D01*
X216759642Y-130087142D01*
X216807261Y-129991904D01*
X216807261Y-129706190D01*
X216759642Y-129610952D01*
X216712023Y-129563333D01*
X216616785Y-129515714D01*
X216426309Y-129515714D01*
X216331071Y-129563333D01*
X215854880Y-130182380D02*
X215854880Y-129515714D01*
X215854880Y-129706190D02*
X215807261Y-129610952D01*
X215759642Y-129563333D01*
X215664404Y-129515714D01*
X215569166Y-129515714D01*
X215235833Y-130182380D02*
X215235833Y-129515714D01*
X215235833Y-129182380D02*
X215283452Y-129230000D01*
X215235833Y-129277619D01*
X215188214Y-129230000D01*
X215235833Y-129182380D01*
X215235833Y-129277619D01*
X214331071Y-129515714D02*
X214331071Y-130325238D01*
X214378690Y-130420476D01*
X214426309Y-130468095D01*
X214521547Y-130515714D01*
X214664404Y-130515714D01*
X214759642Y-130468095D01*
X214331071Y-130134761D02*
X214426309Y-130182380D01*
X214616785Y-130182380D01*
X214712023Y-130134761D01*
X214759642Y-130087142D01*
X214807261Y-129991904D01*
X214807261Y-129706190D01*
X214759642Y-129610952D01*
X214712023Y-129563333D01*
X214616785Y-129515714D01*
X214426309Y-129515714D01*
X214331071Y-129563333D01*
X213712023Y-130182380D02*
X213807261Y-130134761D01*
X213854880Y-130087142D01*
X213902500Y-129991904D01*
X213902500Y-129706190D01*
X213854880Y-129610952D01*
X213807261Y-129563333D01*
X213712023Y-129515714D01*
X213569166Y-129515714D01*
X213473928Y-129563333D01*
X213426309Y-129610952D01*
X213378690Y-129706190D01*
X213378690Y-129991904D01*
X213426309Y-130087142D01*
X213473928Y-130134761D01*
X213569166Y-130182380D01*
X213712023Y-130182380D01*
X212235833Y-130134761D02*
X212092976Y-130182380D01*
X211854880Y-130182380D01*
X211759642Y-130134761D01*
X211712023Y-130087142D01*
X211664404Y-129991904D01*
X211664404Y-129896666D01*
X211712023Y-129801428D01*
X211759642Y-129753809D01*
X211854880Y-129706190D01*
X212045357Y-129658571D01*
X212140595Y-129610952D01*
X212188214Y-129563333D01*
X212235833Y-129468095D01*
X212235833Y-129372857D01*
X212188214Y-129277619D01*
X212140595Y-129230000D01*
X212045357Y-129182380D01*
X211807261Y-129182380D01*
X211664404Y-129230000D01*
X210807261Y-130182380D02*
X210807261Y-129658571D01*
X210854880Y-129563333D01*
X210950119Y-129515714D01*
X211140595Y-129515714D01*
X211235833Y-129563333D01*
X210807261Y-130134761D02*
X210902500Y-130182380D01*
X211140595Y-130182380D01*
X211235833Y-130134761D01*
X211283452Y-130039523D01*
X211283452Y-129944285D01*
X211235833Y-129849047D01*
X211140595Y-129801428D01*
X210902500Y-129801428D01*
X210807261Y-129753809D01*
X210331071Y-129515714D02*
X210331071Y-130182380D01*
X210331071Y-129610952D02*
X210283452Y-129563333D01*
X210188214Y-129515714D01*
X210045357Y-129515714D01*
X209950119Y-129563333D01*
X209902500Y-129658571D01*
X209902500Y-130182380D01*
X209569166Y-129515714D02*
X209188214Y-129515714D01*
X209426309Y-129182380D02*
X209426309Y-130039523D01*
X209378690Y-130134761D01*
X209283452Y-130182380D01*
X209188214Y-130182380D01*
X208426309Y-130182380D02*
X208426309Y-129658571D01*
X208473928Y-129563333D01*
X208569166Y-129515714D01*
X208759642Y-129515714D01*
X208854880Y-129563333D01*
X208426309Y-130134761D02*
X208521547Y-130182380D01*
X208759642Y-130182380D01*
X208854880Y-130134761D01*
X208902500Y-130039523D01*
X208902500Y-129944285D01*
X208854880Y-129849047D01*
X208759642Y-129801428D01*
X208521547Y-129801428D01*
X208426309Y-129753809D01*
X207521547Y-130134761D02*
X207616785Y-130182380D01*
X207807261Y-130182380D01*
X207902500Y-130134761D01*
X207950119Y-130087142D01*
X207997738Y-129991904D01*
X207997738Y-129706190D01*
X207950119Y-129610952D01*
X207902500Y-129563333D01*
X207807261Y-129515714D01*
X207616785Y-129515714D01*
X207521547Y-129563333D01*
X206950119Y-130182380D02*
X207045357Y-130134761D01*
X207092976Y-130087142D01*
X207140595Y-129991904D01*
X207140595Y-129706190D01*
X207092976Y-129610952D01*
X207045357Y-129563333D01*
X206950119Y-129515714D01*
X206807261Y-129515714D01*
X206712023Y-129563333D01*
X206664404Y-129610952D01*
X206616785Y-129706190D01*
X206616785Y-129991904D01*
X206664404Y-130087142D01*
X206712023Y-130134761D01*
X206807261Y-130182380D01*
X206950119Y-130182380D01*
X206188214Y-130182380D02*
X206188214Y-129515714D01*
X206188214Y-129610952D02*
X206140595Y-129563333D01*
X206045357Y-129515714D01*
X205902500Y-129515714D01*
X205807261Y-129563333D01*
X205759642Y-129658571D01*
X205759642Y-130182380D01*
X205759642Y-129658571D02*
X205712023Y-129563333D01*
X205616785Y-129515714D01*
X205473928Y-129515714D01*
X205378690Y-129563333D01*
X205331071Y-129658571D01*
X205331071Y-130182380D01*
X204854880Y-130182380D02*
X204854880Y-129182380D01*
X204854880Y-129563333D02*
X204759642Y-129515714D01*
X204569166Y-129515714D01*
X204473928Y-129563333D01*
X204426309Y-129610952D01*
X204378690Y-129706190D01*
X204378690Y-129991904D01*
X204426309Y-130087142D01*
X204473928Y-130134761D01*
X204569166Y-130182380D01*
X204759642Y-130182380D01*
X204854880Y-130134761D01*
X203521547Y-130182380D02*
X203521547Y-129658571D01*
X203569166Y-129563333D01*
X203664404Y-129515714D01*
X203854880Y-129515714D01*
X203950119Y-129563333D01*
X203521547Y-130134761D02*
X203616785Y-130182380D01*
X203854880Y-130182380D01*
X203950119Y-130134761D01*
X203997738Y-130039523D01*
X203997738Y-129944285D01*
X203950119Y-129849047D01*
X203854880Y-129801428D01*
X203616785Y-129801428D01*
X203521547Y-129753809D01*
X218807261Y-130792380D02*
X218235833Y-130792380D01*
X218521547Y-131792380D02*
X218521547Y-130792380D01*
X217902500Y-131792380D02*
X217902500Y-131125714D01*
X217902500Y-130792380D02*
X217950119Y-130840000D01*
X217902500Y-130887619D01*
X217854880Y-130840000D01*
X217902500Y-130792380D01*
X217902500Y-130887619D01*
X216997738Y-131792380D02*
X216997738Y-131268571D01*
X217045357Y-131173333D01*
X217140595Y-131125714D01*
X217331071Y-131125714D01*
X217426309Y-131173333D01*
X216997738Y-131744761D02*
X217092976Y-131792380D01*
X217331071Y-131792380D01*
X217426309Y-131744761D01*
X217473928Y-131649523D01*
X217473928Y-131554285D01*
X217426309Y-131459047D01*
X217331071Y-131411428D01*
X217092976Y-131411428D01*
X216997738Y-131363809D01*
X216092976Y-131125714D02*
X216092976Y-131935238D01*
X216140595Y-132030476D01*
X216188214Y-132078095D01*
X216283452Y-132125714D01*
X216426309Y-132125714D01*
X216521547Y-132078095D01*
X216092976Y-131744761D02*
X216188214Y-131792380D01*
X216378690Y-131792380D01*
X216473928Y-131744761D01*
X216521547Y-131697142D01*
X216569166Y-131601904D01*
X216569166Y-131316190D01*
X216521547Y-131220952D01*
X216473928Y-131173333D01*
X216378690Y-131125714D01*
X216188214Y-131125714D01*
X216092976Y-131173333D01*
X215473928Y-131792380D02*
X215569166Y-131744761D01*
X215616785Y-131697142D01*
X215664404Y-131601904D01*
X215664404Y-131316190D01*
X215616785Y-131220952D01*
X215569166Y-131173333D01*
X215473928Y-131125714D01*
X215331071Y-131125714D01*
X215235833Y-131173333D01*
X215188214Y-131220952D01*
X215140595Y-131316190D01*
X215140595Y-131601904D01*
X215188214Y-131697142D01*
X215235833Y-131744761D01*
X215331071Y-131792380D01*
X215473928Y-131792380D01*
X213378690Y-131792380D02*
X213712023Y-131316190D01*
X213950119Y-131792380D02*
X213950119Y-130792380D01*
X213569166Y-130792380D01*
X213473928Y-130840000D01*
X213426309Y-130887619D01*
X213378690Y-130982857D01*
X213378690Y-131125714D01*
X213426309Y-131220952D01*
X213473928Y-131268571D01*
X213569166Y-131316190D01*
X213950119Y-131316190D01*
X212950119Y-131792380D02*
X212950119Y-131125714D01*
X212950119Y-130792380D02*
X212997738Y-130840000D01*
X212950119Y-130887619D01*
X212902500Y-130840000D01*
X212950119Y-130792380D01*
X212950119Y-130887619D01*
X212473928Y-131792380D02*
X212473928Y-130792380D01*
X212473928Y-131173333D02*
X212378690Y-131125714D01*
X212188214Y-131125714D01*
X212092976Y-131173333D01*
X212045357Y-131220952D01*
X211997738Y-131316190D01*
X211997738Y-131601904D01*
X212045357Y-131697142D01*
X212092976Y-131744761D01*
X212188214Y-131792380D01*
X212378690Y-131792380D01*
X212473928Y-131744761D01*
X211188214Y-131744761D02*
X211283452Y-131792380D01*
X211473928Y-131792380D01*
X211569166Y-131744761D01*
X211616785Y-131649523D01*
X211616785Y-131268571D01*
X211569166Y-131173333D01*
X211473928Y-131125714D01*
X211283452Y-131125714D01*
X211188214Y-131173333D01*
X211140595Y-131268571D01*
X211140595Y-131363809D01*
X211616785Y-131459047D01*
X210712023Y-131792380D02*
X210712023Y-131125714D01*
X210712023Y-130792380D02*
X210759642Y-130840000D01*
X210712023Y-130887619D01*
X210664404Y-130840000D01*
X210712023Y-130792380D01*
X210712023Y-130887619D01*
X210235833Y-131792380D02*
X210235833Y-131125714D01*
X210235833Y-131316190D02*
X210188214Y-131220952D01*
X210140595Y-131173333D01*
X210045357Y-131125714D01*
X209950119Y-131125714D01*
X209473928Y-131792380D02*
X209569166Y-131744761D01*
X209616785Y-131697142D01*
X209664404Y-131601904D01*
X209664404Y-131316190D01*
X209616785Y-131220952D01*
X209569166Y-131173333D01*
X209473928Y-131125714D01*
X209331071Y-131125714D01*
X209235833Y-131173333D01*
X209188214Y-131220952D01*
X209140595Y-131316190D01*
X209140595Y-131601904D01*
X209188214Y-131697142D01*
X209235833Y-131744761D01*
X209331071Y-131792380D01*
X209473928Y-131792380D01*
X124143988Y-133037380D02*
X124167797Y-133227857D01*
X123763035Y-133037380D02*
X123786845Y-133227857D01*
X123477321Y-133037380D02*
X122905892Y-133037380D01*
X123316607Y-134037380D02*
X123191607Y-133037380D01*
X122697559Y-134037380D02*
X122572559Y-133037380D01*
X122268988Y-134037380D02*
X122203511Y-133513571D01*
X122239226Y-133418333D01*
X122328511Y-133370714D01*
X122471369Y-133370714D01*
X122572559Y-133418333D01*
X122626130Y-133465952D01*
X121792797Y-134037380D02*
X121709464Y-133370714D01*
X121667797Y-133037380D02*
X121721369Y-133085000D01*
X121679702Y-133132619D01*
X121626130Y-133085000D01*
X121667797Y-133037380D01*
X121679702Y-133132619D01*
X121358273Y-133989761D02*
X121268988Y-134037380D01*
X121078511Y-134037380D01*
X120977321Y-133989761D01*
X120917797Y-133894523D01*
X120911845Y-133846904D01*
X120947559Y-133751666D01*
X121036845Y-133704047D01*
X121179702Y-133704047D01*
X121268988Y-133656428D01*
X121304702Y-133561190D01*
X121298750Y-133513571D01*
X121239226Y-133418333D01*
X121138035Y-133370714D01*
X120995178Y-133370714D01*
X120905892Y-133418333D01*
X119310654Y-133989761D02*
X119411845Y-134037380D01*
X119602321Y-134037380D01*
X119691607Y-133989761D01*
X119733273Y-133942142D01*
X119768988Y-133846904D01*
X119733273Y-133561190D01*
X119673750Y-133465952D01*
X119620178Y-133418333D01*
X119518988Y-133370714D01*
X119328511Y-133370714D01*
X119239226Y-133418333D01*
X118888035Y-134037380D02*
X118804702Y-133370714D01*
X118763035Y-133037380D02*
X118816607Y-133085000D01*
X118774940Y-133132619D01*
X118721369Y-133085000D01*
X118763035Y-133037380D01*
X118774940Y-133132619D01*
X118411845Y-134037380D02*
X118328511Y-133370714D01*
X118352321Y-133561190D02*
X118292797Y-133465952D01*
X118239226Y-133418333D01*
X118138035Y-133370714D01*
X118042797Y-133370714D01*
X117358273Y-133989761D02*
X117459464Y-134037380D01*
X117649940Y-134037380D01*
X117739226Y-133989761D01*
X117780892Y-133942142D01*
X117816607Y-133846904D01*
X117780892Y-133561190D01*
X117721369Y-133465952D01*
X117667797Y-133418333D01*
X117566607Y-133370714D01*
X117376130Y-133370714D01*
X117286845Y-133418333D01*
X116423750Y-133370714D02*
X116507083Y-134037380D01*
X116852321Y-133370714D02*
X116917797Y-133894523D01*
X116882083Y-133989761D01*
X116792797Y-134037380D01*
X116649940Y-134037380D01*
X116548750Y-133989761D01*
X116495178Y-133942142D01*
X116030892Y-134037380D02*
X115947559Y-133370714D01*
X115905892Y-133037380D02*
X115959464Y-133085000D01*
X115917797Y-133132619D01*
X115864226Y-133085000D01*
X115905892Y-133037380D01*
X115917797Y-133132619D01*
X115614226Y-133370714D02*
X115233273Y-133370714D01*
X115429702Y-133037380D02*
X115536845Y-133894523D01*
X115501130Y-133989761D01*
X115411845Y-134037380D01*
X115316607Y-134037380D01*
X114221369Y-134037380D02*
X114096369Y-133037380D01*
X113792797Y-134037380D02*
X113727321Y-133513571D01*
X113763035Y-133418333D01*
X113852321Y-133370714D01*
X113995178Y-133370714D01*
X114096369Y-133418333D01*
X114149940Y-133465952D01*
X112888035Y-134037380D02*
X112822559Y-133513571D01*
X112858273Y-133418333D01*
X112947559Y-133370714D01*
X113138035Y-133370714D01*
X113239226Y-133418333D01*
X112882083Y-133989761D02*
X112983273Y-134037380D01*
X113221369Y-134037380D01*
X113310654Y-133989761D01*
X113346369Y-133894523D01*
X113334464Y-133799285D01*
X113274940Y-133704047D01*
X113173750Y-133656428D01*
X112935654Y-133656428D01*
X112834464Y-133608809D01*
X112453511Y-133989761D02*
X112364226Y-134037380D01*
X112173750Y-134037380D01*
X112072559Y-133989761D01*
X112013035Y-133894523D01*
X112007083Y-133846904D01*
X112042797Y-133751666D01*
X112132083Y-133704047D01*
X112274940Y-133704047D01*
X112364226Y-133656428D01*
X112399940Y-133561190D01*
X112393988Y-133513571D01*
X112334464Y-133418333D01*
X112233273Y-133370714D01*
X112090416Y-133370714D01*
X112001130Y-133418333D01*
X110899940Y-133370714D02*
X110518988Y-133370714D01*
X110715416Y-133037380D02*
X110822559Y-133894523D01*
X110786845Y-133989761D01*
X110697559Y-134037380D01*
X110602321Y-134037380D01*
X110268988Y-134037380D02*
X110143988Y-133037380D01*
X109840416Y-134037380D02*
X109774940Y-133513571D01*
X109810654Y-133418333D01*
X109899940Y-133370714D01*
X110042797Y-133370714D01*
X110143988Y-133418333D01*
X110197559Y-133465952D01*
X108977321Y-133989761D02*
X109078511Y-134037380D01*
X109268988Y-134037380D01*
X109358273Y-133989761D01*
X109393988Y-133894523D01*
X109346369Y-133513571D01*
X109286845Y-133418333D01*
X109185654Y-133370714D01*
X108995178Y-133370714D01*
X108905892Y-133418333D01*
X108870178Y-133513571D01*
X108882083Y-133608809D01*
X109370178Y-133704047D01*
X107745178Y-134037380D02*
X107661845Y-133370714D01*
X107673750Y-133465952D02*
X107620178Y-133418333D01*
X107518988Y-133370714D01*
X107376130Y-133370714D01*
X107286845Y-133418333D01*
X107251130Y-133513571D01*
X107316607Y-134037380D01*
X107251130Y-133513571D02*
X107191607Y-133418333D01*
X107090416Y-133370714D01*
X106947559Y-133370714D01*
X106858273Y-133418333D01*
X106822559Y-133513571D01*
X106888035Y-134037380D01*
X106024940Y-133989761D02*
X106126130Y-134037380D01*
X106316607Y-134037380D01*
X106405892Y-133989761D01*
X106441607Y-133894523D01*
X106393988Y-133513571D01*
X106334464Y-133418333D01*
X106233273Y-133370714D01*
X106042797Y-133370714D01*
X105953511Y-133418333D01*
X105917797Y-133513571D01*
X105929702Y-133608809D01*
X106417797Y-133704047D01*
X105554702Y-134037380D02*
X105471369Y-133370714D01*
X105495178Y-133561190D02*
X105435654Y-133465952D01*
X105382083Y-133418333D01*
X105280892Y-133370714D01*
X105185654Y-133370714D01*
X104935654Y-134037380D02*
X104852321Y-133370714D01*
X104810654Y-133037380D02*
X104864226Y-133085000D01*
X104822559Y-133132619D01*
X104768988Y-133085000D01*
X104810654Y-133037380D01*
X104822559Y-133132619D01*
X104518988Y-133370714D02*
X104138035Y-133370714D01*
X104334464Y-133037380D02*
X104441607Y-133894523D01*
X104405892Y-133989761D01*
X104316607Y-134037380D01*
X104221369Y-134037380D01*
X102983273Y-134037380D02*
X103072559Y-133989761D01*
X103114226Y-133942142D01*
X103149940Y-133846904D01*
X103114226Y-133561190D01*
X103054702Y-133465952D01*
X103001130Y-133418333D01*
X102899940Y-133370714D01*
X102757083Y-133370714D01*
X102667797Y-133418333D01*
X102626130Y-133465952D01*
X102590416Y-133561190D01*
X102626130Y-133846904D01*
X102685654Y-133942142D01*
X102739226Y-133989761D01*
X102840416Y-134037380D01*
X102983273Y-134037380D01*
X102280892Y-133370714D02*
X101899940Y-133370714D01*
X102221369Y-134037380D02*
X102114226Y-133180238D01*
X102054702Y-133085000D01*
X101953511Y-133037380D01*
X101858273Y-133037380D01*
X100888035Y-134037380D02*
X100763035Y-133037380D01*
X100810654Y-133418333D02*
X100709464Y-133370714D01*
X100518988Y-133370714D01*
X100429702Y-133418333D01*
X100388035Y-133465952D01*
X100352321Y-133561190D01*
X100388035Y-133846904D01*
X100447559Y-133942142D01*
X100501130Y-133989761D01*
X100602321Y-134037380D01*
X100792797Y-134037380D01*
X100882083Y-133989761D01*
X99596369Y-133989761D02*
X99697559Y-134037380D01*
X99888035Y-134037380D01*
X99977321Y-133989761D01*
X100013035Y-133894523D01*
X99965416Y-133513571D01*
X99905892Y-133418333D01*
X99804702Y-133370714D01*
X99614226Y-133370714D01*
X99524940Y-133418333D01*
X99489226Y-133513571D01*
X99501130Y-133608809D01*
X99989226Y-133704047D01*
X99126130Y-134037380D02*
X99042797Y-133370714D01*
X99001130Y-133037380D02*
X99054702Y-133085000D01*
X99013035Y-133132619D01*
X98959464Y-133085000D01*
X99001130Y-133037380D01*
X99013035Y-133132619D01*
X98566607Y-133370714D02*
X98649940Y-134037380D01*
X98578511Y-133465952D02*
X98524940Y-133418333D01*
X98423750Y-133370714D01*
X98280892Y-133370714D01*
X98191607Y-133418333D01*
X98155892Y-133513571D01*
X98221369Y-134037380D01*
X97233273Y-133370714D02*
X97334464Y-134180238D01*
X97393988Y-134275476D01*
X97447559Y-134323095D01*
X97548750Y-134370714D01*
X97691607Y-134370714D01*
X97780892Y-134323095D01*
X97310654Y-133989761D02*
X97411845Y-134037380D01*
X97602321Y-134037380D01*
X97691607Y-133989761D01*
X97733273Y-133942142D01*
X97768988Y-133846904D01*
X97733273Y-133561190D01*
X97673750Y-133465952D01*
X97620178Y-133418333D01*
X97518988Y-133370714D01*
X97328511Y-133370714D01*
X97239226Y-133418333D01*
X95649940Y-134037380D02*
X95524940Y-133037380D01*
X95643988Y-133989761D02*
X95745178Y-134037380D01*
X95935654Y-134037380D01*
X96024940Y-133989761D01*
X96066607Y-133942142D01*
X96102321Y-133846904D01*
X96066607Y-133561190D01*
X96007083Y-133465952D01*
X95953511Y-133418333D01*
X95852321Y-133370714D01*
X95661845Y-133370714D01*
X95572559Y-133418333D01*
X95030892Y-134037380D02*
X95120178Y-133989761D01*
X95161845Y-133942142D01*
X95197559Y-133846904D01*
X95161845Y-133561190D01*
X95102321Y-133465952D01*
X95048750Y-133418333D01*
X94947559Y-133370714D01*
X94804702Y-133370714D01*
X94715416Y-133418333D01*
X94673750Y-133465952D01*
X94638035Y-133561190D01*
X94673750Y-133846904D01*
X94733273Y-133942142D01*
X94786845Y-133989761D01*
X94888035Y-134037380D01*
X95030892Y-134037380D01*
X93834464Y-133989761D02*
X93935654Y-134037380D01*
X94126130Y-134037380D01*
X94215416Y-133989761D01*
X94257083Y-133942142D01*
X94292797Y-133846904D01*
X94257083Y-133561190D01*
X94197559Y-133465952D01*
X94143988Y-133418333D01*
X94042797Y-133370714D01*
X93852321Y-133370714D01*
X93763035Y-133418333D01*
X93411845Y-134037380D02*
X93328511Y-133370714D01*
X93286845Y-133037380D02*
X93340416Y-133085000D01*
X93298750Y-133132619D01*
X93245178Y-133085000D01*
X93286845Y-133037380D01*
X93298750Y-133132619D01*
X92792797Y-134037380D02*
X92882083Y-133989761D01*
X92917797Y-133894523D01*
X92810654Y-133037380D01*
X92024940Y-133989761D02*
X92126130Y-134037380D01*
X92316607Y-134037380D01*
X92405892Y-133989761D01*
X92441607Y-133894523D01*
X92393988Y-133513571D01*
X92334464Y-133418333D01*
X92233273Y-133370714D01*
X92042797Y-133370714D01*
X91953511Y-133418333D01*
X91917797Y-133513571D01*
X91929702Y-133608809D01*
X92417797Y-133704047D01*
X130358273Y-135599761D02*
X130459464Y-135647380D01*
X130649940Y-135647380D01*
X130739226Y-135599761D01*
X130774940Y-135504523D01*
X130727321Y-135123571D01*
X130667797Y-135028333D01*
X130566607Y-134980714D01*
X130376130Y-134980714D01*
X130286845Y-135028333D01*
X130251130Y-135123571D01*
X130263035Y-135218809D01*
X130751130Y-135314047D01*
X129804702Y-134980714D02*
X129888035Y-135647380D01*
X129816607Y-135075952D02*
X129763035Y-135028333D01*
X129661845Y-134980714D01*
X129518988Y-134980714D01*
X129429702Y-135028333D01*
X129393988Y-135123571D01*
X129459464Y-135647380D01*
X128840416Y-135647380D02*
X128929702Y-135599761D01*
X128971369Y-135552142D01*
X129007083Y-135456904D01*
X128971369Y-135171190D01*
X128911845Y-135075952D01*
X128858273Y-135028333D01*
X128757083Y-134980714D01*
X128614226Y-134980714D01*
X128524940Y-135028333D01*
X128483273Y-135075952D01*
X128447559Y-135171190D01*
X128483273Y-135456904D01*
X128542797Y-135552142D01*
X128596369Y-135599761D01*
X128697559Y-135647380D01*
X128840416Y-135647380D01*
X127566607Y-134980714D02*
X127649940Y-135647380D01*
X127995178Y-134980714D02*
X128060654Y-135504523D01*
X128024940Y-135599761D01*
X127935654Y-135647380D01*
X127792797Y-135647380D01*
X127691607Y-135599761D01*
X127638035Y-135552142D01*
X126661845Y-134980714D02*
X126763035Y-135790238D01*
X126822559Y-135885476D01*
X126876130Y-135933095D01*
X126977321Y-135980714D01*
X127120178Y-135980714D01*
X127209464Y-135933095D01*
X126739226Y-135599761D02*
X126840416Y-135647380D01*
X127030892Y-135647380D01*
X127120178Y-135599761D01*
X127161845Y-135552142D01*
X127197559Y-135456904D01*
X127161845Y-135171190D01*
X127102321Y-135075952D01*
X127048750Y-135028333D01*
X126947559Y-134980714D01*
X126757083Y-134980714D01*
X126667797Y-135028333D01*
X126268988Y-135647380D02*
X126143988Y-134647380D01*
X125840416Y-135647380D02*
X125774940Y-135123571D01*
X125810654Y-135028333D01*
X125899940Y-134980714D01*
X126042797Y-134980714D01*
X126143988Y-135028333D01*
X126197559Y-135075952D01*
X124661845Y-134980714D02*
X124280892Y-134980714D01*
X124477321Y-134647380D02*
X124584464Y-135504523D01*
X124548750Y-135599761D01*
X124459464Y-135647380D01*
X124364226Y-135647380D01*
X123888035Y-135647380D02*
X123977321Y-135599761D01*
X124018988Y-135552142D01*
X124054702Y-135456904D01*
X124018988Y-135171190D01*
X123959464Y-135075952D01*
X123905892Y-135028333D01*
X123804702Y-134980714D01*
X123661845Y-134980714D01*
X123572559Y-135028333D01*
X123530892Y-135075952D01*
X123495178Y-135171190D01*
X123530892Y-135456904D01*
X123590416Y-135552142D01*
X123643988Y-135599761D01*
X123745178Y-135647380D01*
X123888035Y-135647380D01*
X122364226Y-135647380D02*
X122239226Y-134647380D01*
X122286845Y-135028333D02*
X122185654Y-134980714D01*
X121995178Y-134980714D01*
X121905892Y-135028333D01*
X121864226Y-135075952D01*
X121828511Y-135171190D01*
X121864226Y-135456904D01*
X121923750Y-135552142D01*
X121977321Y-135599761D01*
X122078511Y-135647380D01*
X122268988Y-135647380D01*
X122358273Y-135599761D01*
X121072559Y-135599761D02*
X121173750Y-135647380D01*
X121364226Y-135647380D01*
X121453511Y-135599761D01*
X121489226Y-135504523D01*
X121441607Y-135123571D01*
X121382083Y-135028333D01*
X121280892Y-134980714D01*
X121090416Y-134980714D01*
X121001130Y-135028333D01*
X120965416Y-135123571D01*
X120977321Y-135218809D01*
X121465416Y-135314047D01*
X119840416Y-135647380D02*
X119757083Y-134980714D01*
X119768988Y-135075952D02*
X119715416Y-135028333D01*
X119614226Y-134980714D01*
X119471369Y-134980714D01*
X119382083Y-135028333D01*
X119346369Y-135123571D01*
X119411845Y-135647380D01*
X119346369Y-135123571D02*
X119286845Y-135028333D01*
X119185654Y-134980714D01*
X119042797Y-134980714D01*
X118953511Y-135028333D01*
X118917797Y-135123571D01*
X118983273Y-135647380D01*
X118078511Y-135647380D02*
X118013035Y-135123571D01*
X118048750Y-135028333D01*
X118138035Y-134980714D01*
X118328511Y-134980714D01*
X118429702Y-135028333D01*
X118072559Y-135599761D02*
X118173750Y-135647380D01*
X118411845Y-135647380D01*
X118501130Y-135599761D01*
X118536845Y-135504523D01*
X118524940Y-135409285D01*
X118465416Y-135314047D01*
X118364226Y-135266428D01*
X118126130Y-135266428D01*
X118024940Y-135218809D01*
X117173750Y-135647380D02*
X117048750Y-134647380D01*
X117167797Y-135599761D02*
X117268988Y-135647380D01*
X117459464Y-135647380D01*
X117548750Y-135599761D01*
X117590416Y-135552142D01*
X117626130Y-135456904D01*
X117590416Y-135171190D01*
X117530892Y-135075952D01*
X117477321Y-135028333D01*
X117376130Y-134980714D01*
X117185654Y-134980714D01*
X117096369Y-135028333D01*
X116310654Y-135599761D02*
X116411845Y-135647380D01*
X116602321Y-135647380D01*
X116691607Y-135599761D01*
X116727321Y-135504523D01*
X116679702Y-135123571D01*
X116620178Y-135028333D01*
X116518988Y-134980714D01*
X116328511Y-134980714D01*
X116239226Y-135028333D01*
X116203511Y-135123571D01*
X116215416Y-135218809D01*
X116703511Y-135314047D01*
X115078511Y-135647380D02*
X114995178Y-134980714D01*
X114953511Y-134647380D02*
X115007083Y-134695000D01*
X114965416Y-134742619D01*
X114911845Y-134695000D01*
X114953511Y-134647380D01*
X114965416Y-134742619D01*
X114518988Y-134980714D02*
X114602321Y-135647380D01*
X114530892Y-135075952D02*
X114477321Y-135028333D01*
X114376130Y-134980714D01*
X114233273Y-134980714D01*
X114143988Y-135028333D01*
X114108273Y-135123571D01*
X114173750Y-135647380D01*
X113757083Y-134980714D02*
X113376130Y-134980714D01*
X113572559Y-134647380D02*
X113679702Y-135504523D01*
X113643988Y-135599761D01*
X113554702Y-135647380D01*
X113459464Y-135647380D01*
X112983273Y-135647380D02*
X113072559Y-135599761D01*
X113114226Y-135552142D01*
X113149940Y-135456904D01*
X113114226Y-135171190D01*
X113054702Y-135075952D01*
X113001130Y-135028333D01*
X112899940Y-134980714D01*
X112757083Y-134980714D01*
X112667797Y-135028333D01*
X112626130Y-135075952D01*
X112590416Y-135171190D01*
X112626130Y-135456904D01*
X112685654Y-135552142D01*
X112739226Y-135599761D01*
X112840416Y-135647380D01*
X112983273Y-135647380D01*
X111030892Y-135647380D02*
X110965416Y-135123571D01*
X111001130Y-135028333D01*
X111090416Y-134980714D01*
X111280892Y-134980714D01*
X111382083Y-135028333D01*
X111024940Y-135599761D02*
X111126130Y-135647380D01*
X111364226Y-135647380D01*
X111453511Y-135599761D01*
X111489226Y-135504523D01*
X111477321Y-135409285D01*
X111417797Y-135314047D01*
X111316607Y-135266428D01*
X111078511Y-135266428D01*
X110977321Y-135218809D01*
X109852321Y-134980714D02*
X109471369Y-134980714D01*
X109792797Y-135647380D02*
X109685654Y-134790238D01*
X109626130Y-134695000D01*
X109524940Y-134647380D01*
X109429702Y-134647380D01*
X108709464Y-134980714D02*
X108792797Y-135647380D01*
X109138035Y-134980714D02*
X109203511Y-135504523D01*
X109167797Y-135599761D01*
X109078511Y-135647380D01*
X108935654Y-135647380D01*
X108834464Y-135599761D01*
X108780892Y-135552142D01*
X108233273Y-134980714D02*
X108316607Y-135647380D01*
X108245178Y-135075952D02*
X108191607Y-135028333D01*
X108090416Y-134980714D01*
X107947559Y-134980714D01*
X107858273Y-135028333D01*
X107822559Y-135123571D01*
X107888035Y-135647380D01*
X106977321Y-135599761D02*
X107078511Y-135647380D01*
X107268988Y-135647380D01*
X107358273Y-135599761D01*
X107399940Y-135552142D01*
X107435654Y-135456904D01*
X107399940Y-135171190D01*
X107340416Y-135075952D01*
X107286845Y-135028333D01*
X107185654Y-134980714D01*
X106995178Y-134980714D01*
X106905892Y-135028333D01*
X106614226Y-134980714D02*
X106233273Y-134980714D01*
X106429702Y-134647380D02*
X106536845Y-135504523D01*
X106501130Y-135599761D01*
X106411845Y-135647380D01*
X106316607Y-135647380D01*
X105983273Y-135647380D02*
X105899940Y-134980714D01*
X105858273Y-134647380D02*
X105911845Y-134695000D01*
X105870178Y-134742619D01*
X105816607Y-134695000D01*
X105858273Y-134647380D01*
X105870178Y-134742619D01*
X105364226Y-135647380D02*
X105453511Y-135599761D01*
X105495178Y-135552142D01*
X105530892Y-135456904D01*
X105495178Y-135171190D01*
X105435654Y-135075952D01*
X105382083Y-135028333D01*
X105280892Y-134980714D01*
X105138035Y-134980714D01*
X105048750Y-135028333D01*
X105007083Y-135075952D01*
X104971369Y-135171190D01*
X105007083Y-135456904D01*
X105066607Y-135552142D01*
X105120178Y-135599761D01*
X105221369Y-135647380D01*
X105364226Y-135647380D01*
X104518988Y-134980714D02*
X104602321Y-135647380D01*
X104530892Y-135075952D02*
X104477321Y-135028333D01*
X104376130Y-134980714D01*
X104233273Y-134980714D01*
X104143988Y-135028333D01*
X104108273Y-135123571D01*
X104173750Y-135647380D01*
X103697559Y-135647380D02*
X103614226Y-134980714D01*
X103572559Y-134647380D02*
X103626130Y-134695000D01*
X103584464Y-134742619D01*
X103530892Y-134695000D01*
X103572559Y-134647380D01*
X103584464Y-134742619D01*
X103138035Y-134980714D02*
X103221369Y-135647380D01*
X103149940Y-135075952D02*
X103096369Y-135028333D01*
X102995178Y-134980714D01*
X102852321Y-134980714D01*
X102763035Y-135028333D01*
X102727321Y-135123571D01*
X102792797Y-135647380D01*
X101804702Y-134980714D02*
X101905892Y-135790238D01*
X101965416Y-135885476D01*
X102018988Y-135933095D01*
X102120178Y-135980714D01*
X102263035Y-135980714D01*
X102352321Y-135933095D01*
X101882083Y-135599761D02*
X101983273Y-135647380D01*
X102173750Y-135647380D01*
X102263035Y-135599761D01*
X102304702Y-135552142D01*
X102340416Y-135456904D01*
X102304702Y-135171190D01*
X102245178Y-135075952D01*
X102191607Y-135028333D01*
X102090416Y-134980714D01*
X101899940Y-134980714D01*
X101810654Y-135028333D01*
X100221369Y-135647380D02*
X100155892Y-135123571D01*
X100191607Y-135028333D01*
X100280892Y-134980714D01*
X100471369Y-134980714D01*
X100572559Y-135028333D01*
X100215416Y-135599761D02*
X100316607Y-135647380D01*
X100554702Y-135647380D01*
X100643988Y-135599761D01*
X100679702Y-135504523D01*
X100667797Y-135409285D01*
X100608273Y-135314047D01*
X100507083Y-135266428D01*
X100268988Y-135266428D01*
X100167797Y-135218809D01*
X99745178Y-135647380D02*
X99661845Y-134980714D01*
X99673750Y-135075952D02*
X99620178Y-135028333D01*
X99518988Y-134980714D01*
X99376130Y-134980714D01*
X99286845Y-135028333D01*
X99251130Y-135123571D01*
X99316607Y-135647380D01*
X99251130Y-135123571D02*
X99191607Y-135028333D01*
X99090416Y-134980714D01*
X98947559Y-134980714D01*
X98858273Y-135028333D01*
X98822559Y-135123571D01*
X98888035Y-135647380D01*
X98328511Y-134980714D02*
X98453511Y-135980714D01*
X98334464Y-135028333D02*
X98233273Y-134980714D01*
X98042797Y-134980714D01*
X97953511Y-135028333D01*
X97911845Y-135075952D01*
X97876130Y-135171190D01*
X97911845Y-135456904D01*
X97971369Y-135552142D01*
X98024940Y-135599761D01*
X98126130Y-135647380D01*
X98316607Y-135647380D01*
X98405892Y-135599761D01*
X97364226Y-135647380D02*
X97453511Y-135599761D01*
X97489226Y-135504523D01*
X97382083Y-134647380D01*
X96983273Y-135647380D02*
X96899940Y-134980714D01*
X96858273Y-134647380D02*
X96911845Y-134695000D01*
X96870178Y-134742619D01*
X96816607Y-134695000D01*
X96858273Y-134647380D01*
X96870178Y-134742619D01*
X96566607Y-134980714D02*
X96185654Y-134980714D01*
X96507083Y-135647380D02*
X96399940Y-134790238D01*
X96340416Y-134695000D01*
X96239226Y-134647380D01*
X96143988Y-134647380D01*
X95935654Y-135647380D02*
X95852321Y-134980714D01*
X95810654Y-134647380D02*
X95864226Y-134695000D01*
X95822559Y-134742619D01*
X95768988Y-134695000D01*
X95810654Y-134647380D01*
X95822559Y-134742619D01*
X95072559Y-135599761D02*
X95173750Y-135647380D01*
X95364226Y-135647380D01*
X95453511Y-135599761D01*
X95489226Y-135504523D01*
X95441607Y-135123571D01*
X95382083Y-135028333D01*
X95280892Y-134980714D01*
X95090416Y-134980714D01*
X95001130Y-135028333D01*
X94965416Y-135123571D01*
X94977321Y-135218809D01*
X95465416Y-135314047D01*
X94602321Y-135647380D02*
X94518988Y-134980714D01*
X94542797Y-135171190D02*
X94483273Y-135075952D01*
X94429702Y-135028333D01*
X94328511Y-134980714D01*
X94233273Y-134980714D01*
X93221369Y-135647380D02*
X93096369Y-134647380D01*
X93143988Y-135028333D02*
X93042797Y-134980714D01*
X92852321Y-134980714D01*
X92763035Y-135028333D01*
X92721369Y-135075952D01*
X92685654Y-135171190D01*
X92721369Y-135456904D01*
X92780892Y-135552142D01*
X92834464Y-135599761D01*
X92935654Y-135647380D01*
X93126130Y-135647380D01*
X93215416Y-135599761D01*
X92328511Y-134980714D02*
X92173750Y-135647380D01*
X91852321Y-134980714D02*
X92173750Y-135647380D01*
X92298750Y-135885476D01*
X92352321Y-135933095D01*
X92453511Y-135980714D01*
X133596369Y-137209761D02*
X133507083Y-137257380D01*
X133316607Y-137257380D01*
X133215416Y-137209761D01*
X133155892Y-137114523D01*
X133149940Y-137066904D01*
X133185654Y-136971666D01*
X133274940Y-136924047D01*
X133417797Y-136924047D01*
X133507083Y-136876428D01*
X133542797Y-136781190D01*
X133536845Y-136733571D01*
X133477321Y-136638333D01*
X133376130Y-136590714D01*
X133233273Y-136590714D01*
X133143988Y-136638333D01*
X132602321Y-137257380D02*
X132691607Y-137209761D01*
X132733273Y-137162142D01*
X132768988Y-137066904D01*
X132733273Y-136781190D01*
X132673750Y-136685952D01*
X132620178Y-136638333D01*
X132518988Y-136590714D01*
X132376130Y-136590714D01*
X132286845Y-136638333D01*
X132245178Y-136685952D01*
X132209464Y-136781190D01*
X132245178Y-137066904D01*
X132304702Y-137162142D01*
X132358273Y-137209761D01*
X132459464Y-137257380D01*
X132602321Y-137257380D01*
X131840416Y-137257380D02*
X131757083Y-136590714D01*
X131768988Y-136685952D02*
X131715416Y-136638333D01*
X131614226Y-136590714D01*
X131471369Y-136590714D01*
X131382083Y-136638333D01*
X131346369Y-136733571D01*
X131411845Y-137257380D01*
X131346369Y-136733571D02*
X131286845Y-136638333D01*
X131185654Y-136590714D01*
X131042797Y-136590714D01*
X130953511Y-136638333D01*
X130917797Y-136733571D01*
X130983273Y-137257380D01*
X130120178Y-137209761D02*
X130221369Y-137257380D01*
X130411845Y-137257380D01*
X130501130Y-137209761D01*
X130536845Y-137114523D01*
X130489226Y-136733571D01*
X130429702Y-136638333D01*
X130328511Y-136590714D01*
X130138035Y-136590714D01*
X130048750Y-136638333D01*
X130013035Y-136733571D01*
X130024940Y-136828809D01*
X130513035Y-136924047D01*
X129507083Y-137257380D02*
X129596369Y-137209761D01*
X129638035Y-137162142D01*
X129673750Y-137066904D01*
X129638035Y-136781190D01*
X129578511Y-136685952D01*
X129524940Y-136638333D01*
X129423750Y-136590714D01*
X129280892Y-136590714D01*
X129191607Y-136638333D01*
X129149940Y-136685952D01*
X129114226Y-136781190D01*
X129149940Y-137066904D01*
X129209464Y-137162142D01*
X129263035Y-137209761D01*
X129364226Y-137257380D01*
X129507083Y-137257380D01*
X128661845Y-136590714D02*
X128745178Y-137257380D01*
X128673750Y-136685952D02*
X128620178Y-136638333D01*
X128518988Y-136590714D01*
X128376130Y-136590714D01*
X128286845Y-136638333D01*
X128251130Y-136733571D01*
X128316607Y-137257380D01*
X127453511Y-137209761D02*
X127554702Y-137257380D01*
X127745178Y-137257380D01*
X127834464Y-137209761D01*
X127870178Y-137114523D01*
X127822559Y-136733571D01*
X127763035Y-136638333D01*
X127661845Y-136590714D01*
X127471369Y-136590714D01*
X127382083Y-136638333D01*
X127346369Y-136733571D01*
X127358273Y-136828809D01*
X127846369Y-136924047D01*
X126233273Y-136590714D02*
X126126130Y-137257380D01*
X125876130Y-136781190D01*
X125745178Y-137257380D01*
X125471369Y-136590714D01*
X125173750Y-137257380D02*
X125048750Y-136257380D01*
X124745178Y-137257380D02*
X124679702Y-136733571D01*
X124715416Y-136638333D01*
X124804702Y-136590714D01*
X124947559Y-136590714D01*
X125048750Y-136638333D01*
X125102321Y-136685952D01*
X124126130Y-137257380D02*
X124215416Y-137209761D01*
X124257083Y-137162142D01*
X124292797Y-137066904D01*
X124257083Y-136781190D01*
X124197559Y-136685952D01*
X124143988Y-136638333D01*
X124042797Y-136590714D01*
X123899940Y-136590714D01*
X123810654Y-136638333D01*
X123768988Y-136685952D01*
X123733273Y-136781190D01*
X123768988Y-137066904D01*
X123828511Y-137162142D01*
X123882083Y-137209761D01*
X123983273Y-137257380D01*
X124126130Y-137257380D01*
X122602321Y-137257380D02*
X122477321Y-136257380D01*
X122173750Y-137257380D02*
X122108273Y-136733571D01*
X122143988Y-136638333D01*
X122233273Y-136590714D01*
X122376130Y-136590714D01*
X122477321Y-136638333D01*
X122530892Y-136685952D01*
X121268988Y-137257380D02*
X121203511Y-136733571D01*
X121239226Y-136638333D01*
X121328511Y-136590714D01*
X121518988Y-136590714D01*
X121620178Y-136638333D01*
X121263035Y-137209761D02*
X121364226Y-137257380D01*
X121602321Y-137257380D01*
X121691607Y-137209761D01*
X121727321Y-137114523D01*
X121715416Y-137019285D01*
X121655892Y-136924047D01*
X121554702Y-136876428D01*
X121316607Y-136876428D01*
X121215416Y-136828809D01*
X120834464Y-137209761D02*
X120745178Y-137257380D01*
X120554702Y-137257380D01*
X120453511Y-137209761D01*
X120393988Y-137114523D01*
X120388035Y-137066904D01*
X120423750Y-136971666D01*
X120513035Y-136924047D01*
X120655892Y-136924047D01*
X120745178Y-136876428D01*
X120780892Y-136781190D01*
X120774940Y-136733571D01*
X120715416Y-136638333D01*
X120614226Y-136590714D01*
X120471369Y-136590714D01*
X120382083Y-136638333D01*
X119078511Y-137257380D02*
X119167797Y-137209761D01*
X119209464Y-137162142D01*
X119245178Y-137066904D01*
X119209464Y-136781190D01*
X119149940Y-136685952D01*
X119096369Y-136638333D01*
X118995178Y-136590714D01*
X118852321Y-136590714D01*
X118763035Y-136638333D01*
X118721369Y-136685952D01*
X118685654Y-136781190D01*
X118721369Y-137066904D01*
X118780892Y-137162142D01*
X118834464Y-137209761D01*
X118935654Y-137257380D01*
X119078511Y-137257380D01*
X118233273Y-136590714D02*
X118316607Y-137257380D01*
X118245178Y-136685952D02*
X118191607Y-136638333D01*
X118090416Y-136590714D01*
X117947559Y-136590714D01*
X117858273Y-136638333D01*
X117822559Y-136733571D01*
X117888035Y-137257380D01*
X117268988Y-137257380D02*
X117358273Y-137209761D01*
X117393988Y-137114523D01*
X117286845Y-136257380D01*
X116899940Y-136590714D02*
X116745178Y-137257380D01*
X116423750Y-136590714D02*
X116745178Y-137257380D01*
X116870178Y-137495476D01*
X116923750Y-137543095D01*
X117024940Y-137590714D01*
X115423750Y-136590714D02*
X115042797Y-136590714D01*
X115239226Y-136257380D02*
X115346369Y-137114523D01*
X115310654Y-137209761D01*
X115221369Y-137257380D01*
X115126130Y-137257380D01*
X114792797Y-137257380D02*
X114667797Y-136257380D01*
X114364226Y-137257380D02*
X114298750Y-136733571D01*
X114334464Y-136638333D01*
X114423750Y-136590714D01*
X114566607Y-136590714D01*
X114667797Y-136638333D01*
X114721369Y-136685952D01*
X113501130Y-137209761D02*
X113602321Y-137257380D01*
X113792797Y-137257380D01*
X113882083Y-137209761D01*
X113917797Y-137114523D01*
X113870178Y-136733571D01*
X113810654Y-136638333D01*
X113709464Y-136590714D01*
X113518988Y-136590714D01*
X113429702Y-136638333D01*
X113393988Y-136733571D01*
X113405892Y-136828809D01*
X113893988Y-136924047D01*
X112310654Y-137209761D02*
X112221369Y-137257380D01*
X112030892Y-137257380D01*
X111929702Y-137209761D01*
X111870178Y-137114523D01*
X111864226Y-137066904D01*
X111899940Y-136971666D01*
X111989226Y-136924047D01*
X112132083Y-136924047D01*
X112221369Y-136876428D01*
X112257083Y-136781190D01*
X112251130Y-136733571D01*
X112191607Y-136638333D01*
X112090416Y-136590714D01*
X111947559Y-136590714D01*
X111858273Y-136638333D01*
X111459464Y-137257380D02*
X111334464Y-136257380D01*
X111316607Y-136876428D02*
X111078511Y-137257380D01*
X110995178Y-136590714D02*
X111423750Y-136971666D01*
X110263035Y-137209761D02*
X110364226Y-137257380D01*
X110554702Y-137257380D01*
X110643988Y-137209761D01*
X110679702Y-137114523D01*
X110632083Y-136733571D01*
X110572559Y-136638333D01*
X110471369Y-136590714D01*
X110280892Y-136590714D01*
X110191607Y-136638333D01*
X110155892Y-136733571D01*
X110167797Y-136828809D01*
X110655892Y-136924047D01*
X109852321Y-136590714D02*
X109471369Y-136590714D01*
X109667797Y-136257380D02*
X109774940Y-137114523D01*
X109739226Y-137209761D01*
X109649940Y-137257380D01*
X109554702Y-137257380D01*
X108786845Y-137209761D02*
X108888035Y-137257380D01*
X109078511Y-137257380D01*
X109167797Y-137209761D01*
X109209464Y-137162142D01*
X109245178Y-137066904D01*
X109209464Y-136781190D01*
X109149940Y-136685952D01*
X109096369Y-136638333D01*
X108995178Y-136590714D01*
X108804702Y-136590714D01*
X108715416Y-136638333D01*
X108364226Y-137257380D02*
X108239226Y-136257380D01*
X107935654Y-137257380D02*
X107870178Y-136733571D01*
X107905892Y-136638333D01*
X107995178Y-136590714D01*
X108138035Y-136590714D01*
X108239226Y-136638333D01*
X108292797Y-136685952D01*
X107459464Y-137257380D02*
X107376130Y-136590714D01*
X107334464Y-136257380D02*
X107388035Y-136305000D01*
X107346369Y-136352619D01*
X107292797Y-136305000D01*
X107334464Y-136257380D01*
X107346369Y-136352619D01*
X106596369Y-137209761D02*
X106697559Y-137257380D01*
X106888035Y-137257380D01*
X106977321Y-137209761D01*
X107013035Y-137114523D01*
X106965416Y-136733571D01*
X106905892Y-136638333D01*
X106804702Y-136590714D01*
X106614226Y-136590714D01*
X106524940Y-136638333D01*
X106489226Y-136733571D01*
X106501130Y-136828809D01*
X106989226Y-136924047D01*
X106167797Y-137209761D02*
X106078511Y-137257380D01*
X105888035Y-137257380D01*
X105786845Y-137209761D01*
X105727321Y-137114523D01*
X105721369Y-137066904D01*
X105757083Y-136971666D01*
X105846369Y-136924047D01*
X105989226Y-136924047D01*
X106078511Y-136876428D01*
X106114226Y-136781190D01*
X106108273Y-136733571D01*
X106048750Y-136638333D01*
X105947559Y-136590714D01*
X105804702Y-136590714D01*
X105715416Y-136638333D01*
X105376130Y-136590714D02*
X104995178Y-136590714D01*
X105191607Y-136257380D02*
X105298750Y-137114523D01*
X105263035Y-137209761D01*
X105173750Y-137257380D01*
X105078511Y-137257380D01*
X103840416Y-137257380D02*
X103929702Y-137209761D01*
X103971369Y-137162142D01*
X104007083Y-137066904D01*
X103971369Y-136781190D01*
X103911845Y-136685952D01*
X103858273Y-136638333D01*
X103757083Y-136590714D01*
X103614226Y-136590714D01*
X103524940Y-136638333D01*
X103483273Y-136685952D01*
X103447559Y-136781190D01*
X103483273Y-137066904D01*
X103542797Y-137162142D01*
X103596369Y-137209761D01*
X103697559Y-137257380D01*
X103840416Y-137257380D01*
X103138035Y-136590714D02*
X102757083Y-136590714D01*
X103078511Y-137257380D02*
X102971369Y-136400238D01*
X102911845Y-136305000D01*
X102810654Y-136257380D01*
X102715416Y-136257380D01*
X101661845Y-136590714D02*
X101745178Y-137257380D01*
X101673750Y-136685952D02*
X101620178Y-136638333D01*
X101518988Y-136590714D01*
X101376130Y-136590714D01*
X101286845Y-136638333D01*
X101251130Y-136733571D01*
X101316607Y-137257380D01*
X100697559Y-137257380D02*
X100786845Y-137209761D01*
X100828511Y-137162142D01*
X100864226Y-137066904D01*
X100828511Y-136781190D01*
X100768988Y-136685952D01*
X100715416Y-136638333D01*
X100614226Y-136590714D01*
X100471369Y-136590714D01*
X100382083Y-136638333D01*
X100340416Y-136685952D01*
X100304702Y-136781190D01*
X100340416Y-137066904D01*
X100399940Y-137162142D01*
X100453511Y-137209761D01*
X100554702Y-137257380D01*
X100697559Y-137257380D01*
X99995178Y-136590714D02*
X99614226Y-136590714D01*
X99810654Y-136257380D02*
X99917797Y-137114523D01*
X99882083Y-137209761D01*
X99792797Y-137257380D01*
X99697559Y-137257380D01*
X99364226Y-137257380D02*
X99280892Y-136590714D01*
X99239226Y-136257380D02*
X99292797Y-136305000D01*
X99251130Y-136352619D01*
X99197559Y-136305000D01*
X99239226Y-136257380D01*
X99251130Y-136352619D01*
X98745178Y-137257380D02*
X98834464Y-137209761D01*
X98876130Y-137162142D01*
X98911845Y-137066904D01*
X98876130Y-136781190D01*
X98816607Y-136685952D01*
X98763035Y-136638333D01*
X98661845Y-136590714D01*
X98518988Y-136590714D01*
X98429702Y-136638333D01*
X98388035Y-136685952D01*
X98352321Y-136781190D01*
X98388035Y-137066904D01*
X98447559Y-137162142D01*
X98501130Y-137209761D01*
X98602321Y-137257380D01*
X98745178Y-137257380D01*
X97899940Y-136590714D02*
X97983273Y-137257380D01*
X97911845Y-136685952D02*
X97858273Y-136638333D01*
X97757083Y-136590714D01*
X97614226Y-136590714D01*
X97524940Y-136638333D01*
X97489226Y-136733571D01*
X97554702Y-137257380D01*
X97120178Y-137209761D02*
X97030892Y-137257380D01*
X96840416Y-137257380D01*
X96739226Y-137209761D01*
X96679702Y-137114523D01*
X96673750Y-137066904D01*
X96709464Y-136971666D01*
X96798750Y-136924047D01*
X96941607Y-136924047D01*
X97030892Y-136876428D01*
X97066607Y-136781190D01*
X97060654Y-136733571D01*
X97001130Y-136638333D01*
X96899940Y-136590714D01*
X96757083Y-136590714D01*
X96667797Y-136638333D01*
X95078511Y-137257380D02*
X95013035Y-136733571D01*
X95048750Y-136638333D01*
X95138035Y-136590714D01*
X95328511Y-136590714D01*
X95429702Y-136638333D01*
X95072559Y-137209761D02*
X95173750Y-137257380D01*
X95411845Y-137257380D01*
X95501130Y-137209761D01*
X95536845Y-137114523D01*
X95524940Y-137019285D01*
X95465416Y-136924047D01*
X95364226Y-136876428D01*
X95126130Y-136876428D01*
X95024940Y-136828809D01*
X94643988Y-137209761D02*
X94554702Y-137257380D01*
X94364226Y-137257380D01*
X94263035Y-137209761D01*
X94203511Y-137114523D01*
X94197559Y-137066904D01*
X94233273Y-136971666D01*
X94322559Y-136924047D01*
X94465416Y-136924047D01*
X94554702Y-136876428D01*
X94590416Y-136781190D01*
X94584464Y-136733571D01*
X94524940Y-136638333D01*
X94423750Y-136590714D01*
X94280892Y-136590714D01*
X94191607Y-136638333D01*
X93090416Y-136590714D02*
X92709464Y-136590714D01*
X92905892Y-136257380D02*
X93013035Y-137114523D01*
X92977321Y-137209761D01*
X92888035Y-137257380D01*
X92792797Y-137257380D01*
X92316607Y-137257380D02*
X92405892Y-137209761D01*
X92447559Y-137162142D01*
X92483273Y-137066904D01*
X92447559Y-136781190D01*
X92388035Y-136685952D01*
X92334464Y-136638333D01*
X92233273Y-136590714D01*
X92090416Y-136590714D01*
X92001130Y-136638333D01*
X91959464Y-136685952D01*
X91923750Y-136781190D01*
X91959464Y-137066904D01*
X92018988Y-137162142D01*
X92072559Y-137209761D01*
X92173750Y-137257380D01*
X92316607Y-137257380D01*
X115268988Y-138867380D02*
X115143988Y-137867380D01*
X114840416Y-138867380D02*
X114774940Y-138343571D01*
X114810654Y-138248333D01*
X114899940Y-138200714D01*
X115042797Y-138200714D01*
X115143988Y-138248333D01*
X115197559Y-138295952D01*
X114221369Y-138867380D02*
X114310654Y-138819761D01*
X114352321Y-138772142D01*
X114388035Y-138676904D01*
X114352321Y-138391190D01*
X114292797Y-138295952D01*
X114239226Y-138248333D01*
X114138035Y-138200714D01*
X113995178Y-138200714D01*
X113905892Y-138248333D01*
X113864226Y-138295952D01*
X113828511Y-138391190D01*
X113864226Y-138676904D01*
X113923750Y-138772142D01*
X113977321Y-138819761D01*
X114078511Y-138867380D01*
X114221369Y-138867380D01*
X113471369Y-138200714D02*
X113364226Y-138867380D01*
X113114226Y-138391190D01*
X112983273Y-138867380D01*
X112709464Y-138200714D01*
X111649940Y-138867380D02*
X111566607Y-138200714D01*
X111524940Y-137867380D02*
X111578511Y-137915000D01*
X111536845Y-137962619D01*
X111483273Y-137915000D01*
X111524940Y-137867380D01*
X111536845Y-137962619D01*
X111233273Y-138200714D02*
X110852321Y-138200714D01*
X111048750Y-137867380D02*
X111155892Y-138724523D01*
X111120178Y-138819761D01*
X111030892Y-138867380D01*
X110935654Y-138867380D01*
X109852321Y-138200714D02*
X109745178Y-138867380D01*
X109495178Y-138391190D01*
X109364226Y-138867380D01*
X109090416Y-138200714D01*
X108649940Y-138867380D02*
X108739226Y-138819761D01*
X108780892Y-138772142D01*
X108816607Y-138676904D01*
X108780892Y-138391190D01*
X108721369Y-138295952D01*
X108667797Y-138248333D01*
X108566607Y-138200714D01*
X108423750Y-138200714D01*
X108334464Y-138248333D01*
X108292797Y-138295952D01*
X108257083Y-138391190D01*
X108292797Y-138676904D01*
X108352321Y-138772142D01*
X108405892Y-138819761D01*
X108507083Y-138867380D01*
X108649940Y-138867380D01*
X107888035Y-138867380D02*
X107804702Y-138200714D01*
X107828511Y-138391190D02*
X107768988Y-138295952D01*
X107715416Y-138248333D01*
X107614226Y-138200714D01*
X107518988Y-138200714D01*
X107268988Y-138867380D02*
X107143988Y-137867380D01*
X107126130Y-138486428D02*
X106888035Y-138867380D01*
X106804702Y-138200714D02*
X107233273Y-138581666D01*
X106501130Y-138819761D02*
X106411845Y-138867380D01*
X106221369Y-138867380D01*
X106120178Y-138819761D01*
X106060654Y-138724523D01*
X106054702Y-138676904D01*
X106090416Y-138581666D01*
X106179702Y-138534047D01*
X106322559Y-138534047D01*
X106411845Y-138486428D01*
X106447559Y-138391190D01*
X106441607Y-138343571D01*
X106382083Y-138248333D01*
X106280892Y-138200714D01*
X106138035Y-138200714D01*
X106048750Y-138248333D01*
X105638035Y-138772142D02*
X105596369Y-138819761D01*
X105649940Y-138867380D01*
X105691607Y-138819761D01*
X105638035Y-138772142D01*
X105649940Y-138867380D01*
X105096369Y-137867380D02*
X105120178Y-138057857D01*
X104715416Y-137867380D02*
X104739226Y-138057857D01*
X103602321Y-138486428D02*
X102840416Y-138486428D01*
X101691607Y-138819761D02*
X101554702Y-138867380D01*
X101316607Y-138867380D01*
X101215416Y-138819761D01*
X101161845Y-138772142D01*
X101102321Y-138676904D01*
X101090416Y-138581666D01*
X101126130Y-138486428D01*
X101167797Y-138438809D01*
X101257083Y-138391190D01*
X101441607Y-138343571D01*
X101530892Y-138295952D01*
X101572559Y-138248333D01*
X101608273Y-138153095D01*
X101596369Y-138057857D01*
X101536845Y-137962619D01*
X101483273Y-137915000D01*
X101382083Y-137867380D01*
X101143988Y-137867380D01*
X101007083Y-137915000D01*
X100310654Y-138819761D02*
X100411845Y-138867380D01*
X100602321Y-138867380D01*
X100691607Y-138819761D01*
X100727321Y-138724523D01*
X100679702Y-138343571D01*
X100620178Y-138248333D01*
X100518988Y-138200714D01*
X100328511Y-138200714D01*
X100239226Y-138248333D01*
X100203511Y-138343571D01*
X100215416Y-138438809D01*
X100703511Y-138534047D01*
X99697559Y-138867380D02*
X99786845Y-138819761D01*
X99822559Y-138724523D01*
X99715416Y-137867380D01*
X99376130Y-138200714D02*
X98995178Y-138200714D01*
X99316607Y-138867380D02*
X99209464Y-138010238D01*
X99149940Y-137915000D01*
X99048750Y-137867380D01*
X98953511Y-137867380D01*
X98733273Y-138772142D02*
X98691607Y-138819761D01*
X98745178Y-138867380D01*
X98786845Y-138819761D01*
X98733273Y-138772142D01*
X98745178Y-138867380D01*
X97507083Y-138867380D02*
X97382083Y-137867380D01*
X97143988Y-137867380D01*
X97007083Y-137915000D01*
X96923750Y-138010238D01*
X96888035Y-138105476D01*
X96864226Y-138295952D01*
X96882083Y-138438809D01*
X96953511Y-138629285D01*
X97013035Y-138724523D01*
X97120178Y-138819761D01*
X97268988Y-138867380D01*
X97507083Y-138867380D01*
X96364226Y-138867380D02*
X96453511Y-138819761D01*
X96495178Y-138772142D01*
X96530892Y-138676904D01*
X96495178Y-138391190D01*
X96435654Y-138295952D01*
X96382083Y-138248333D01*
X96280892Y-138200714D01*
X96138035Y-138200714D01*
X96048750Y-138248333D01*
X96007083Y-138295952D01*
X95971369Y-138391190D01*
X96007083Y-138676904D01*
X96066607Y-138772142D01*
X96120178Y-138819761D01*
X96221369Y-138867380D01*
X96364226Y-138867380D01*
X95090416Y-138200714D02*
X95173750Y-138867380D01*
X95518988Y-138200714D02*
X95584464Y-138724523D01*
X95548750Y-138819761D01*
X95459464Y-138867380D01*
X95316607Y-138867380D01*
X95215416Y-138819761D01*
X95161845Y-138772142D01*
X94185654Y-138200714D02*
X94286845Y-139010238D01*
X94346369Y-139105476D01*
X94399940Y-139153095D01*
X94501130Y-139200714D01*
X94643988Y-139200714D01*
X94733273Y-139153095D01*
X94263035Y-138819761D02*
X94364226Y-138867380D01*
X94554702Y-138867380D01*
X94643988Y-138819761D01*
X94685654Y-138772142D01*
X94721369Y-138676904D01*
X94685654Y-138391190D01*
X94626130Y-138295952D01*
X94572559Y-138248333D01*
X94471369Y-138200714D01*
X94280892Y-138200714D01*
X94191607Y-138248333D01*
X93649940Y-138867380D02*
X93739226Y-138819761D01*
X93774940Y-138724523D01*
X93667797Y-137867380D01*
X92840416Y-138867380D02*
X92774940Y-138343571D01*
X92810654Y-138248333D01*
X92899940Y-138200714D01*
X93090416Y-138200714D01*
X93191607Y-138248333D01*
X92834464Y-138819761D02*
X92935654Y-138867380D01*
X93173750Y-138867380D01*
X93263035Y-138819761D01*
X93298750Y-138724523D01*
X93286845Y-138629285D01*
X93227321Y-138534047D01*
X93126130Y-138486428D01*
X92888035Y-138486428D01*
X92786845Y-138438809D01*
X92405892Y-138819761D02*
X92316607Y-138867380D01*
X92126130Y-138867380D01*
X92024940Y-138819761D01*
X91965416Y-138724523D01*
X91959464Y-138676904D01*
X91995178Y-138581666D01*
X92084464Y-138534047D01*
X92227321Y-138534047D01*
X92316607Y-138486428D01*
X92352321Y-138391190D01*
X92346369Y-138343571D01*
X92286845Y-138248333D01*
X92185654Y-138200714D01*
X92042797Y-138200714D01*
X91953511Y-138248333D01*
%TO.C,G\u002A\u002A\u002A*%
G36*
X199675512Y-74342226D02*
G01*
X199336372Y-74328329D01*
X199184407Y-74317953D01*
X199037530Y-74292360D01*
X198977681Y-74255307D01*
X198986496Y-74225160D01*
X199062896Y-74202991D01*
X199222222Y-74196182D01*
X199486313Y-74196182D01*
X199486313Y-73817784D01*
X199297113Y-73817784D01*
X199242720Y-73816496D01*
X199139156Y-73796168D01*
X199107914Y-73746834D01*
X199111348Y-73726437D01*
X199165557Y-73687600D01*
X199297113Y-73675885D01*
X199486313Y-73675885D01*
X199486313Y-73297486D01*
X199249813Y-73297486D01*
X199126290Y-73292946D01*
X199038633Y-73271154D01*
X199013314Y-73226536D01*
X199018142Y-73204324D01*
X199061564Y-73174762D01*
X199164522Y-73159759D01*
X199344413Y-73155587D01*
X199675512Y-73155587D01*
X199675512Y-74342226D01*
G37*
G36*
X195669834Y-71234405D02*
G01*
X195842008Y-71361627D01*
X195949211Y-71555017D01*
X195986126Y-71809923D01*
X195975512Y-71958025D01*
X195928749Y-72071295D01*
X195825307Y-72190670D01*
X195746319Y-72264899D01*
X195656231Y-72322009D01*
X195546537Y-72346370D01*
X195379827Y-72351490D01*
X195186838Y-72348064D01*
X195054443Y-72329364D01*
X194982015Y-72283488D01*
X194951671Y-72198541D01*
X194945530Y-72062630D01*
X194946420Y-71979269D01*
X194957705Y-71880758D01*
X194991781Y-71839522D01*
X195060783Y-71831192D01*
X195112116Y-71835436D01*
X195167776Y-71876812D01*
X195190858Y-71984916D01*
X195193052Y-72002905D01*
X195243637Y-72119129D01*
X195339956Y-72162962D01*
X195466604Y-72132845D01*
X195608181Y-72027215D01*
X195650357Y-71981281D01*
X195737129Y-71822467D01*
X195729460Y-71666956D01*
X195627328Y-71515394D01*
X195585259Y-71475468D01*
X195505999Y-71424428D01*
X195407393Y-71408816D01*
X195252536Y-71419154D01*
X195233575Y-71421064D01*
X195087127Y-71429038D01*
X195007514Y-71413430D01*
X194971236Y-71370144D01*
X194961616Y-71335493D01*
X194983611Y-71260668D01*
X195082743Y-71210779D01*
X195267188Y-71180590D01*
X195438003Y-71178005D01*
X195669834Y-71234405D01*
G37*
G36*
X194461918Y-73944617D02*
G01*
X194415155Y-74057887D01*
X194311713Y-74177263D01*
X194277675Y-74210579D01*
X194173119Y-74293164D01*
X194063733Y-74329790D01*
X193904934Y-74338082D01*
X193853509Y-74337610D01*
X193712837Y-74323245D01*
X193609246Y-74275670D01*
X193498156Y-74177263D01*
X193453665Y-74131399D01*
X193378003Y-74031215D01*
X193344744Y-73922356D01*
X193338897Y-73795847D01*
X193521287Y-73795847D01*
X193568039Y-73973607D01*
X193673023Y-74113408D01*
X193706018Y-74138046D01*
X193864185Y-74198008D01*
X194019625Y-74178804D01*
X194153713Y-74091358D01*
X194247824Y-73946593D01*
X194283333Y-73755434D01*
X194283108Y-73739067D01*
X194242332Y-73546818D01*
X194143676Y-73402407D01*
X194005074Y-73317269D01*
X193844459Y-73302840D01*
X193679763Y-73370555D01*
X193601357Y-73449911D01*
X193532486Y-73610994D01*
X193521287Y-73795847D01*
X193338897Y-73795847D01*
X193337337Y-73762089D01*
X193338274Y-73709147D01*
X193372412Y-73495036D01*
X193463362Y-73340693D01*
X193621658Y-73226266D01*
X193665647Y-73205760D01*
X193878395Y-73159300D01*
X194088557Y-73187035D01*
X194271047Y-73282151D01*
X194400782Y-73437837D01*
X194416934Y-73474730D01*
X194456641Y-73628146D01*
X194468655Y-73755434D01*
X194472532Y-73796515D01*
X194461918Y-73944617D01*
G37*
G36*
X193053537Y-73752054D02*
G01*
X193051798Y-74000964D01*
X193045541Y-74169794D01*
X193033058Y-74272772D01*
X193012643Y-74324126D01*
X192982588Y-74338082D01*
X192945531Y-74322948D01*
X192919234Y-74250308D01*
X192911638Y-74101583D01*
X192907145Y-73997623D01*
X192877997Y-73889848D01*
X192820666Y-73871111D01*
X192733883Y-73941407D01*
X192616378Y-74100733D01*
X192544533Y-74199545D01*
X192449982Y-74298934D01*
X192379516Y-74337232D01*
X192363487Y-74337215D01*
X192313526Y-74328048D01*
X192307463Y-74291763D01*
X192349219Y-74211901D01*
X192442717Y-74072007D01*
X192588693Y-73859838D01*
X192466367Y-73746470D01*
X192397714Y-73668245D01*
X192340113Y-73521938D01*
X192342902Y-73504690D01*
X192542529Y-73504690D01*
X192562358Y-73602961D01*
X192616174Y-73648566D01*
X192734264Y-73666915D01*
X192911638Y-73681595D01*
X192911638Y-73489541D01*
X192906272Y-73390522D01*
X192871764Y-73314026D01*
X192788433Y-73296930D01*
X192637129Y-73327962D01*
X192597247Y-73341509D01*
X192545982Y-73394885D01*
X192542529Y-73504690D01*
X192342902Y-73504690D01*
X192362551Y-73383175D01*
X192456359Y-73266300D01*
X192612871Y-73185656D01*
X192823418Y-73155587D01*
X193053538Y-73155587D01*
X193053538Y-73746834D01*
X193053537Y-73752054D01*
G37*
G36*
X205587507Y-73947332D02*
G01*
X205584201Y-74128982D01*
X205575595Y-74243515D01*
X205559230Y-74306297D01*
X205532648Y-74332697D01*
X205493389Y-74338082D01*
X205471508Y-74337070D01*
X205424910Y-74314183D01*
X205403770Y-74243436D01*
X205398789Y-74101583D01*
X205395708Y-73999387D01*
X205375369Y-73896417D01*
X205332770Y-73865084D01*
X205288657Y-73888936D01*
X205206729Y-73974771D01*
X205114990Y-74101583D01*
X205065836Y-74173564D01*
X204957972Y-74295274D01*
X204871896Y-74338082D01*
X204842799Y-74336487D01*
X204811189Y-74317965D01*
X204821189Y-74266977D01*
X204877820Y-74169096D01*
X204986103Y-74009896D01*
X205099543Y-73847259D01*
X204981134Y-73745408D01*
X204901451Y-73650669D01*
X204877726Y-73550276D01*
X205037967Y-73550276D01*
X205059449Y-73612883D01*
X205117207Y-73663749D01*
X205234141Y-73675885D01*
X205282311Y-73675464D01*
X205362842Y-73661662D01*
X205393758Y-73607826D01*
X205398789Y-73486685D01*
X205398788Y-73483696D01*
X205391580Y-73362801D01*
X205360212Y-73309454D01*
X205289580Y-73297486D01*
X205277539Y-73297649D01*
X205130644Y-73333815D01*
X205045856Y-73422978D01*
X205037967Y-73550276D01*
X204877726Y-73550276D01*
X204862725Y-73486800D01*
X204874326Y-73387398D01*
X204951455Y-73257249D01*
X205103403Y-73180661D01*
X205333080Y-73155587D01*
X205587989Y-73155587D01*
X205587989Y-73746834D01*
X205587507Y-73947332D01*
G37*
G36*
X192927677Y-71191592D02*
G01*
X192948773Y-71248712D01*
X192960596Y-71364210D01*
X192968801Y-71556185D01*
X192982588Y-71949441D01*
X193237099Y-71556673D01*
X193324742Y-71423463D01*
X193420665Y-71289271D01*
X193491822Y-71212952D01*
X193552128Y-71180592D01*
X193615498Y-71178275D01*
X193739385Y-71192644D01*
X193765947Y-72351490D01*
X193648154Y-72351490D01*
X193599944Y-72349084D01*
X193559861Y-72328894D01*
X193537019Y-72271703D01*
X193524809Y-72158322D01*
X193516624Y-71969566D01*
X193502886Y-71587641D01*
X193256285Y-71969566D01*
X193168276Y-72103729D01*
X193074394Y-72234521D01*
X193002696Y-72309458D01*
X192937871Y-72343470D01*
X192864605Y-72351490D01*
X192719527Y-72351490D01*
X192732808Y-71772067D01*
X192738003Y-71567122D01*
X192745557Y-71390220D01*
X192757421Y-71278822D01*
X192776763Y-71216942D01*
X192806751Y-71188592D01*
X192850552Y-71177787D01*
X192891651Y-71174749D01*
X192927677Y-71191592D01*
G37*
G36*
X191162073Y-74037550D02*
G01*
X191012859Y-74218284D01*
X190921316Y-74277036D01*
X190723128Y-74334233D01*
X190512744Y-74329398D01*
X190329717Y-74260108D01*
X190184437Y-74118554D01*
X190095831Y-73920558D01*
X190087794Y-73798506D01*
X190265385Y-73798506D01*
X190318253Y-73982666D01*
X190447949Y-74135553D01*
X190587218Y-74189877D01*
X190752561Y-74171584D01*
X190910584Y-74082028D01*
X190987825Y-74002544D01*
X191032224Y-73900076D01*
X191043296Y-73746834D01*
X191035464Y-73611447D01*
X190996872Y-73504303D01*
X190910584Y-73411640D01*
X190877343Y-73384797D01*
X190715878Y-73307555D01*
X190558413Y-73324478D01*
X190401110Y-73435747D01*
X190397054Y-73439851D01*
X190291074Y-73608944D01*
X190265385Y-73798506D01*
X190087794Y-73798506D01*
X190081059Y-73696233D01*
X190145364Y-73468106D01*
X190250369Y-73320763D01*
X190422573Y-73204985D01*
X190624146Y-73155488D01*
X190830028Y-73177769D01*
X191015162Y-73277322D01*
X191132002Y-73406111D01*
X191221697Y-73610051D01*
X191227986Y-73746834D01*
X191231703Y-73827668D01*
X191162073Y-74037550D01*
G37*
G36*
X196387580Y-71195937D02*
G01*
X196404383Y-71258672D01*
X196411255Y-71380661D01*
X196412921Y-71579578D01*
X196414018Y-71996741D01*
X196679214Y-71580319D01*
X196787101Y-71413947D01*
X196879289Y-71284470D01*
X196948078Y-71211139D01*
X197006688Y-71180292D01*
X197068341Y-71178270D01*
X197192272Y-71192644D01*
X197205552Y-71772067D01*
X197218833Y-72351490D01*
X197099128Y-72351490D01*
X197044342Y-72348595D01*
X197007177Y-72327191D01*
X196987864Y-72268252D01*
X196980559Y-72152758D01*
X196979422Y-71961687D01*
X196979422Y-71571885D01*
X196716522Y-71964564D01*
X196619315Y-72107438D01*
X196523088Y-72237083D01*
X196451645Y-72310310D01*
X196390783Y-72340877D01*
X196326299Y-72342541D01*
X196198975Y-72327840D01*
X196198975Y-71760242D01*
X196199438Y-71554026D01*
X196202866Y-71381376D01*
X196212220Y-71273587D01*
X196230457Y-71214473D01*
X196260531Y-71187849D01*
X196305400Y-71177530D01*
X196356120Y-71174786D01*
X196387580Y-71195937D01*
G37*
G36*
X206523849Y-73696495D02*
G01*
X206526958Y-73869790D01*
X206526672Y-74062506D01*
X206522056Y-74205320D01*
X206513509Y-74275917D01*
X206496705Y-74294779D01*
X206408833Y-74324931D01*
X206273686Y-74340699D01*
X206119472Y-74342444D01*
X205974396Y-74330524D01*
X205866666Y-74305301D01*
X205824488Y-74267132D01*
X205846980Y-74224903D01*
X205927751Y-74202552D01*
X206084637Y-74196182D01*
X206344786Y-74196182D01*
X206344786Y-73817784D01*
X206131936Y-73817784D01*
X206041659Y-73814899D01*
X205946943Y-73793598D01*
X205919087Y-73746834D01*
X205927742Y-73716742D01*
X205991645Y-73685170D01*
X206131936Y-73675885D01*
X206344786Y-73675885D01*
X206344786Y-73297486D01*
X206080695Y-73297486D01*
X205947181Y-73293266D01*
X205854599Y-73274521D01*
X205836313Y-73238361D01*
X205862223Y-73213805D01*
X205977024Y-73187831D01*
X206183178Y-73179236D01*
X206510335Y-73179236D01*
X206523849Y-73696495D01*
G37*
G36*
X198151782Y-71709903D02*
G01*
X198154891Y-71883198D01*
X198154604Y-72075914D01*
X198149989Y-72218728D01*
X198141442Y-72289325D01*
X198092769Y-72324347D01*
X197969130Y-72344966D01*
X197761354Y-72351490D01*
X197695199Y-72351331D01*
X197538940Y-72347202D01*
X197451552Y-72333549D01*
X197413467Y-72305177D01*
X197405121Y-72256890D01*
X197406133Y-72235009D01*
X197429019Y-72188411D01*
X197499767Y-72167271D01*
X197641620Y-72162290D01*
X197758409Y-72160697D01*
X197841183Y-72146280D01*
X197872952Y-72104392D01*
X197878119Y-72020391D01*
X197877820Y-71989921D01*
X197864166Y-71914461D01*
X197810236Y-71884095D01*
X197688920Y-71878492D01*
X197672443Y-71878449D01*
X197558757Y-71870290D01*
X197510047Y-71836428D01*
X197499720Y-71760242D01*
X197499788Y-71749944D01*
X197512842Y-71678890D01*
X197567022Y-71648447D01*
X197688920Y-71641993D01*
X197705396Y-71641950D01*
X197819082Y-71633791D01*
X197867792Y-71599929D01*
X197878119Y-71523743D01*
X197875632Y-71474471D01*
X197851000Y-71428247D01*
X197779913Y-71409206D01*
X197638330Y-71405493D01*
X197543371Y-71404428D01*
X197448717Y-71393456D01*
X197412897Y-71361850D01*
X197413656Y-71299069D01*
X197418213Y-71273094D01*
X197440196Y-71228954D01*
X197494595Y-71204807D01*
X197602129Y-71194691D01*
X197783519Y-71192644D01*
X198138268Y-71192644D01*
X198151782Y-71709903D01*
G37*
G36*
X201721229Y-71178747D02*
G01*
X202064152Y-71192644D01*
X202090714Y-72351490D01*
X201710860Y-72351490D01*
X201618063Y-72351182D01*
X201464095Y-72346569D01*
X201377543Y-72332787D01*
X201339486Y-72305248D01*
X201331005Y-72259362D01*
X201332024Y-72239949D01*
X201356926Y-72192590D01*
X201431955Y-72166760D01*
X201579329Y-72152937D01*
X201684215Y-72145429D01*
X201781400Y-72126426D01*
X201825719Y-72086272D01*
X201842344Y-72011426D01*
X201845669Y-71976822D01*
X201836062Y-71913376D01*
X201779888Y-71883611D01*
X201653145Y-71869526D01*
X201533281Y-71854853D01*
X201466322Y-71822178D01*
X201449255Y-71760242D01*
X201461508Y-71704830D01*
X201520528Y-71668646D01*
X201650279Y-71651098D01*
X201671396Y-71649497D01*
X201788449Y-71632328D01*
X201839866Y-71595037D01*
X201851303Y-71521023D01*
X201849153Y-71476305D01*
X201825319Y-71429104D01*
X201755250Y-71409431D01*
X201614804Y-71405493D01*
X201517473Y-71404323D01*
X201424007Y-71392161D01*
X201385693Y-71356552D01*
X201378305Y-71285172D01*
X201379290Y-71243411D01*
X201393894Y-71198991D01*
X201442250Y-71177598D01*
X201544612Y-71172944D01*
X201721229Y-71178747D01*
G37*
G36*
X204446156Y-73184600D02*
G01*
X204535568Y-73247910D01*
X204608737Y-73346847D01*
X204641992Y-73456633D01*
X204598983Y-73581901D01*
X204472429Y-73713720D01*
X204272538Y-73838605D01*
X204202185Y-73878521D01*
X204137868Y-73948375D01*
X204130638Y-74045162D01*
X204132513Y-74059497D01*
X204172400Y-74152117D01*
X204273080Y-74187274D01*
X204376191Y-74184243D01*
X204503769Y-74146915D01*
X204572852Y-74124506D01*
X204645216Y-74144056D01*
X204663777Y-74203998D01*
X204608419Y-74278957D01*
X204589741Y-74290909D01*
X204458483Y-74329485D01*
X204291587Y-74336248D01*
X204131081Y-74312565D01*
X204018994Y-74259801D01*
X203960695Y-74169703D01*
X203932495Y-74026735D01*
X203945633Y-73928245D01*
X204002108Y-73830063D01*
X204117276Y-73732459D01*
X204306235Y-73618960D01*
X204365739Y-73580220D01*
X204442209Y-73485814D01*
X204442609Y-73398250D01*
X204378833Y-73334031D01*
X204262778Y-73309659D01*
X204106336Y-73341634D01*
X204065598Y-73356014D01*
X203987101Y-73364627D01*
X203948614Y-73318567D01*
X203935563Y-73268242D01*
X203957212Y-73219133D01*
X204041108Y-73188991D01*
X204203429Y-73168274D01*
X204336055Y-73162395D01*
X204446156Y-73184600D01*
G37*
G36*
X204050745Y-69347952D02*
G01*
X204299069Y-69362248D01*
X204395064Y-69371280D01*
X204504705Y-69393863D01*
X204547393Y-69421373D01*
X204538148Y-69429066D01*
X204454593Y-69444233D01*
X204294047Y-69455958D01*
X204068664Y-69463520D01*
X203790596Y-69466201D01*
X203710763Y-69466026D01*
X203425725Y-69461776D01*
X203212937Y-69452196D01*
X203079820Y-69437750D01*
X203033799Y-69418901D01*
X203049759Y-69401863D01*
X203135388Y-69380110D01*
X203270298Y-69371601D01*
X203506797Y-69371601D01*
X203506797Y-67763408D01*
X203205727Y-67763408D01*
X203105334Y-67765470D01*
X202927300Y-67788156D01*
X202793311Y-67845588D01*
X202694150Y-67949732D01*
X202620597Y-68112556D01*
X202563436Y-68346024D01*
X202513449Y-68662104D01*
X202489905Y-68818672D01*
X202435661Y-69069325D01*
X202363953Y-69246586D01*
X202264966Y-69364586D01*
X202128887Y-69437456D01*
X201945903Y-69479328D01*
X201835570Y-69485524D01*
X201650013Y-69472699D01*
X201484730Y-69439943D01*
X201438829Y-69420170D01*
X201424838Y-69386114D01*
X201479596Y-69362684D01*
X201586992Y-69362138D01*
X201663463Y-69364049D01*
X201766163Y-69326538D01*
X201839001Y-69228045D01*
X201888588Y-69057544D01*
X201921533Y-68804004D01*
X201937076Y-68653117D01*
X201988368Y-68344538D01*
X202064008Y-68111884D01*
X202170860Y-67942712D01*
X202315787Y-67824580D01*
X202505651Y-67745044D01*
X202583513Y-67718817D01*
X202659368Y-67679930D01*
X202655400Y-67654128D01*
X202426196Y-67570109D01*
X202201051Y-67470010D01*
X202045155Y-67369055D01*
X201945394Y-67255502D01*
X201888655Y-67117612D01*
X201861825Y-66943645D01*
X201861091Y-66889191D01*
X202418901Y-66889191D01*
X202424767Y-67024684D01*
X202476412Y-67249628D01*
X202587374Y-67413422D01*
X202764961Y-67529587D01*
X202781784Y-67536921D01*
X202994427Y-67597265D01*
X203234823Y-67620470D01*
X203506797Y-67621508D01*
X203506797Y-66107914D01*
X203234823Y-66108953D01*
X203224590Y-66109018D01*
X202924786Y-66140268D01*
X202697973Y-66230413D01*
X202540494Y-66382949D01*
X202448690Y-66601375D01*
X202418901Y-66889191D01*
X201861091Y-66889191D01*
X201859412Y-66764602D01*
X201916060Y-66504697D01*
X202049333Y-66300086D01*
X202259417Y-66150397D01*
X202307671Y-66127299D01*
X202386029Y-66095262D01*
X202471682Y-66071357D01*
X202579179Y-66054100D01*
X202723071Y-66042005D01*
X202917909Y-66033585D01*
X203178242Y-66027356D01*
X203518622Y-66021832D01*
X203888753Y-66018203D01*
X204181914Y-66019694D01*
X204387182Y-66026632D01*
X204507896Y-66039131D01*
X204547393Y-66057307D01*
X204530579Y-66076606D01*
X204439301Y-66099427D01*
X204286623Y-66107914D01*
X204025853Y-66107914D01*
X204050745Y-69347952D01*
G37*
G36*
X212814882Y-72228285D02*
G01*
X212817126Y-72518677D01*
X212816978Y-72775202D01*
X212814591Y-72982680D01*
X212810116Y-73125934D01*
X212803708Y-73189784D01*
X212759892Y-73228960D01*
X212660795Y-73250186D01*
X212609504Y-73247875D01*
X212570398Y-73228186D01*
X212550027Y-73171811D01*
X212542285Y-73059447D01*
X212541061Y-72871788D01*
X212541061Y-72493389D01*
X212292737Y-72493316D01*
X212019071Y-72458537D01*
X211782903Y-72347715D01*
X211603620Y-72162290D01*
X211602125Y-72160069D01*
X211534679Y-72037896D01*
X211508057Y-71912913D01*
X211512322Y-71751987D01*
X211788511Y-71751987D01*
X211806259Y-71932720D01*
X211893472Y-72094778D01*
X211944893Y-72146644D01*
X212063152Y-72212217D01*
X212236396Y-72243881D01*
X212317598Y-72249234D01*
X212441431Y-72246725D01*
X212505586Y-72229923D01*
X212511556Y-72218131D01*
X212526625Y-72129871D01*
X212537122Y-71979990D01*
X212541061Y-71792920D01*
X212541061Y-71392017D01*
X212245437Y-71422089D01*
X212087184Y-71444281D01*
X211951205Y-71486633D01*
X211867039Y-71552316D01*
X211841924Y-71587399D01*
X211788511Y-71751987D01*
X211512322Y-71751987D01*
X211512627Y-71740471D01*
X211513644Y-71728150D01*
X211537781Y-71564470D01*
X211587147Y-71453025D01*
X211678829Y-71354096D01*
X211720474Y-71321050D01*
X211928590Y-71225295D01*
X212211962Y-71176987D01*
X212564711Y-71177299D01*
X212801210Y-71192644D01*
X212803853Y-71392017D01*
X212814048Y-72161013D01*
X212814882Y-72228285D01*
G37*
G36*
X200598619Y-74338082D02*
G01*
X200426069Y-74333956D01*
X200309968Y-74313532D01*
X200217309Y-74264903D01*
X200112340Y-74176167D01*
X200040431Y-74107420D01*
X199970870Y-74016313D01*
X199941624Y-73912157D01*
X199936157Y-73767412D01*
X200101895Y-73767412D01*
X200153726Y-73975892D01*
X200211798Y-74059306D01*
X200321501Y-74143667D01*
X200429364Y-74177623D01*
X200576434Y-74196182D01*
X200716108Y-74196182D01*
X200716108Y-73285030D01*
X200515157Y-73311983D01*
X200418545Y-73333082D01*
X200243344Y-73429402D01*
X200134781Y-73579713D01*
X200101895Y-73767412D01*
X199936157Y-73767412D01*
X199935661Y-73754279D01*
X199944460Y-73586032D01*
X199979163Y-73469030D01*
X200051078Y-73371451D01*
X200200583Y-73258324D01*
X200430539Y-73177646D01*
X200692458Y-73163667D01*
X200881657Y-73179236D01*
X200884082Y-73285030D01*
X200908219Y-74338082D01*
X200598619Y-74338082D01*
G37*
G36*
X217412942Y-73256470D02*
G01*
X217282867Y-73241503D01*
X217152793Y-73226536D01*
X217125593Y-72351490D01*
X216413362Y-72351490D01*
X216428329Y-72221415D01*
X216433976Y-72180332D01*
X216454299Y-72129253D01*
X216505668Y-72100756D01*
X216609252Y-72086325D01*
X216786219Y-72077444D01*
X217129143Y-72063546D01*
X217129143Y-71405493D01*
X216703445Y-71405493D01*
X216665890Y-71405488D01*
X216477614Y-71404054D01*
X216362866Y-71396569D01*
X216303441Y-71377977D01*
X216281136Y-71343221D01*
X216277746Y-71287244D01*
X216277746Y-71168994D01*
X217412942Y-71168994D01*
X217412942Y-73256470D01*
G37*
G36*
X201273481Y-66510168D02*
G01*
X201273270Y-66517778D01*
X201261028Y-66753366D01*
X201241229Y-66916249D01*
X201216337Y-67002071D01*
X201188815Y-67006479D01*
X201161128Y-66925117D01*
X201135739Y-66753629D01*
X201122577Y-66662777D01*
X201075429Y-66480658D01*
X201013058Y-66351581D01*
X200966970Y-66301829D01*
X200796467Y-66202312D01*
X200554508Y-66137549D01*
X200254314Y-66111721D01*
X200005369Y-66107914D01*
X200017814Y-67727933D01*
X200030260Y-69347952D01*
X200278584Y-69362248D01*
X200374580Y-69371280D01*
X200484221Y-69393863D01*
X200526908Y-69421373D01*
X200517664Y-69429066D01*
X200434109Y-69444233D01*
X200273563Y-69455958D01*
X200048180Y-69463520D01*
X199770111Y-69466201D01*
X199690279Y-69466026D01*
X199405241Y-69461776D01*
X199192453Y-69452196D01*
X199059336Y-69437750D01*
X199013314Y-69418901D01*
X199029274Y-69401863D01*
X199114904Y-69380110D01*
X199249813Y-69371601D01*
X199486313Y-69371601D01*
X199486313Y-66107914D01*
X199299441Y-66107914D01*
X199108175Y-66118822D01*
X198870817Y-66162099D01*
X198673083Y-66231285D01*
X198542153Y-66318808D01*
X198541428Y-66319584D01*
X198460297Y-66456647D01*
X198415254Y-66635388D01*
X198397724Y-66775061D01*
X198364994Y-66952142D01*
X198332608Y-67037839D01*
X198303068Y-67034172D01*
X198278873Y-66943158D01*
X198262523Y-66766818D01*
X198256517Y-66507171D01*
X198256517Y-66013315D01*
X201286906Y-66013315D01*
X201273481Y-66510168D01*
G37*
G36*
X213286033Y-71177678D02*
G01*
X213416108Y-71192644D01*
X213439758Y-72011387D01*
X213440298Y-72030069D01*
X213449231Y-72321662D01*
X213458086Y-72534060D01*
X213469118Y-72681833D01*
X213484583Y-72779550D01*
X213506737Y-72841780D01*
X213537834Y-72883092D01*
X213580132Y-72918056D01*
X213590121Y-72925396D01*
X213784147Y-73014388D01*
X213998052Y-73032977D01*
X214202170Y-72983101D01*
X214366838Y-72866695D01*
X214374019Y-72858495D01*
X214405712Y-72810021D01*
X214428936Y-72741199D01*
X214445417Y-72637178D01*
X214456882Y-72483110D01*
X214465060Y-72264143D01*
X214471678Y-71965427D01*
X214486653Y-71163319D01*
X214613578Y-71177982D01*
X214740502Y-71192644D01*
X214740502Y-72005227D01*
X214740240Y-72154788D01*
X214735825Y-72450318D01*
X214722036Y-72672164D01*
X214693873Y-72835039D01*
X214646337Y-72953654D01*
X214574428Y-73042721D01*
X214473145Y-73116953D01*
X214337488Y-73191061D01*
X214115981Y-73268235D01*
X213860951Y-73285378D01*
X213616701Y-73236001D01*
X213406024Y-73125010D01*
X213251712Y-72957312D01*
X213237228Y-72932582D01*
X213206040Y-72865241D01*
X213183991Y-72782591D01*
X213169530Y-72668775D01*
X213161103Y-72507938D01*
X213157156Y-72284223D01*
X213156136Y-71981774D01*
X213155959Y-71162711D01*
X213286033Y-71177678D01*
G37*
G36*
X206782309Y-71177530D02*
G01*
X206831181Y-71189972D01*
X206863823Y-71223306D01*
X206883311Y-71295763D01*
X206894528Y-71425832D01*
X206902358Y-71632001D01*
X206908730Y-71803183D01*
X206919987Y-71950754D01*
X206939350Y-72039398D01*
X206971707Y-72089048D01*
X207021948Y-72119640D01*
X207093908Y-72141342D01*
X207254848Y-72119661D01*
X207264176Y-72116085D01*
X207320547Y-72088730D01*
X207356106Y-72046595D01*
X207376603Y-71969731D01*
X207387786Y-71838189D01*
X207395407Y-71632022D01*
X207402981Y-71430751D01*
X207414028Y-71298695D01*
X207433200Y-71224798D01*
X207465382Y-71190572D01*
X207515456Y-71177530D01*
X207538990Y-71174616D01*
X207578795Y-71178987D01*
X207603249Y-71211959D01*
X207616091Y-71290033D01*
X207621056Y-71429706D01*
X207621880Y-71647479D01*
X207620520Y-71841487D01*
X207613266Y-72003284D01*
X207596394Y-72109751D01*
X207566214Y-72182218D01*
X207519036Y-72242017D01*
X207459359Y-72288742D01*
X207298547Y-72345905D01*
X207108599Y-72358493D01*
X206925530Y-72326182D01*
X206785357Y-72248645D01*
X206781022Y-72244546D01*
X206732944Y-72190626D01*
X206702226Y-72125453D01*
X206685035Y-72028197D01*
X206677533Y-71878026D01*
X206675884Y-71654108D01*
X206675999Y-71536907D01*
X206678302Y-71357312D01*
X206686423Y-71247974D01*
X206704024Y-71192495D01*
X206734765Y-71174479D01*
X206782309Y-71177530D01*
G37*
G36*
X216077645Y-72221415D02*
G01*
X216090392Y-73250186D01*
X214906052Y-73250186D01*
X214906052Y-73131937D01*
X214906165Y-73111935D01*
X214913132Y-73064131D01*
X214943819Y-73035067D01*
X215015946Y-73020081D01*
X215147233Y-73014508D01*
X215355400Y-73013687D01*
X215804748Y-73013687D01*
X215804748Y-72304190D01*
X215450000Y-72304190D01*
X215325400Y-72303755D01*
X215194820Y-72298352D01*
X215126220Y-72281344D01*
X215099672Y-72246087D01*
X215095251Y-72185940D01*
X215096555Y-72144407D01*
X215112764Y-72100881D01*
X215163790Y-72078014D01*
X215269560Y-72069165D01*
X215450000Y-72067691D01*
X215804748Y-72067691D01*
X215804748Y-71405493D01*
X215352110Y-71405493D01*
X215294687Y-71405469D01*
X215105666Y-71403782D01*
X214990176Y-71396441D01*
X214931187Y-71379303D01*
X214911668Y-71348227D01*
X214914587Y-71299069D01*
X214922544Y-71260416D01*
X214945412Y-71228135D01*
X214998136Y-71208174D01*
X215096902Y-71197576D01*
X215257894Y-71193384D01*
X215497299Y-71192644D01*
X216064897Y-71192644D01*
X216077645Y-72221415D01*
G37*
G36*
X205252213Y-72351490D02*
G01*
X205000686Y-72329193D01*
X204767901Y-72248553D01*
X204606081Y-72112781D01*
X204519576Y-71925761D01*
X204514609Y-71755593D01*
X204783892Y-71755593D01*
X204801457Y-71914095D01*
X204870391Y-72036710D01*
X204878095Y-72043151D01*
X204989658Y-72094098D01*
X205130540Y-72114991D01*
X205304190Y-72114991D01*
X205304190Y-71405493D01*
X205149165Y-71405493D01*
X205083051Y-71408438D01*
X204915283Y-71458990D01*
X204816347Y-71573956D01*
X204783892Y-71755593D01*
X204514609Y-71755593D01*
X204512735Y-71691375D01*
X204524975Y-71623611D01*
X204613307Y-71423499D01*
X204773471Y-71281798D01*
X205007147Y-71197415D01*
X205316015Y-71169258D01*
X205540689Y-71168994D01*
X205540689Y-72351490D01*
X205252213Y-72351490D01*
G37*
G36*
X192438640Y-72351490D02*
G01*
X192320391Y-72351490D01*
X192272934Y-72349249D01*
X192225541Y-72325373D01*
X192205975Y-72255350D01*
X192202141Y-72114991D01*
X192202141Y-71878492D01*
X191634543Y-71878492D01*
X191634543Y-72114991D01*
X191633387Y-72211616D01*
X191621292Y-72305468D01*
X191585861Y-72344020D01*
X191514838Y-72351490D01*
X191395133Y-72351490D01*
X191408413Y-71772067D01*
X191413811Y-71559404D01*
X191421379Y-71385248D01*
X191433371Y-71275985D01*
X191453011Y-71215611D01*
X191483520Y-71188127D01*
X191528119Y-71177530D01*
X191570331Y-71173935D01*
X191613033Y-71192593D01*
X191630923Y-71261263D01*
X191634543Y-71402204D01*
X191634543Y-71641993D01*
X192202141Y-71641993D01*
X192202141Y-71405493D01*
X192203261Y-71310581D01*
X192215200Y-71215794D01*
X192250211Y-71176662D01*
X192320391Y-71168994D01*
X192438640Y-71168994D01*
X192438640Y-72351490D01*
G37*
G36*
X197975022Y-74330179D02*
G01*
X197888657Y-74324397D01*
X197724639Y-74302561D01*
X197613410Y-74263302D01*
X197525142Y-74197847D01*
X197518823Y-74191817D01*
X197390540Y-74005650D01*
X197338378Y-73784103D01*
X197351636Y-73685729D01*
X197515845Y-73685729D01*
X197532132Y-73870132D01*
X197631061Y-74052990D01*
X197746416Y-74137326D01*
X197939110Y-74183372D01*
X198161918Y-74208485D01*
X198161918Y-73775151D01*
X198161354Y-73669814D01*
X198152053Y-73476284D01*
X198123622Y-73359296D01*
X198066238Y-73306175D01*
X197970077Y-73304250D01*
X197825319Y-73340845D01*
X197709450Y-73392016D01*
X197576763Y-73519713D01*
X197515845Y-73685729D01*
X197351636Y-73685729D01*
X197369196Y-73555428D01*
X197424994Y-73429935D01*
X197550702Y-73289640D01*
X197737006Y-73203728D01*
X197996878Y-73164111D01*
X198303817Y-73144566D01*
X198303817Y-74348757D01*
X197975022Y-74330179D01*
G37*
G36*
X209261848Y-73158409D02*
G01*
X209290866Y-73178947D01*
X209309257Y-73232719D01*
X209319422Y-73335063D01*
X209323761Y-73501322D01*
X209324674Y-73746834D01*
X209323143Y-73984510D01*
X209317094Y-74160170D01*
X209304886Y-74268331D01*
X209284879Y-74322974D01*
X209255437Y-74338082D01*
X209249478Y-74337688D01*
X209217678Y-74312555D01*
X209196066Y-74237590D01*
X209181956Y-74097879D01*
X209172662Y-73878506D01*
X209159124Y-73418930D01*
X208865279Y-73878506D01*
X208736571Y-74073290D01*
X208622583Y-74226269D01*
X208537904Y-74311597D01*
X208475056Y-74338082D01*
X208440387Y-74334775D01*
X208411541Y-74313632D01*
X208393434Y-74259262D01*
X208383578Y-74156322D01*
X208379488Y-73989471D01*
X208378678Y-73743366D01*
X208378974Y-73593005D01*
X208381801Y-73393409D01*
X208389365Y-73265424D01*
X208403763Y-73194377D01*
X208427093Y-73165600D01*
X208461452Y-73164421D01*
X208469402Y-73166265D01*
X208508491Y-73193759D01*
X208534971Y-73262141D01*
X208553285Y-73389314D01*
X208567877Y-73593182D01*
X208591527Y-74006172D01*
X208865591Y-73580879D01*
X208936151Y-73473602D01*
X209066543Y-73292941D01*
X209163497Y-73188929D01*
X209232164Y-73155587D01*
X209261848Y-73158409D01*
G37*
G36*
X206392085Y-72351490D02*
G01*
X206037337Y-72351490D01*
X205973480Y-72351341D01*
X205816809Y-72347256D01*
X205729172Y-72333637D01*
X205690967Y-72305258D01*
X205682588Y-72256890D01*
X205683600Y-72235009D01*
X205706487Y-72188411D01*
X205777234Y-72167271D01*
X205919087Y-72162290D01*
X206155586Y-72162290D01*
X206155586Y-71168994D01*
X206392085Y-71168994D01*
X206392085Y-72351490D01*
G37*
G36*
X188645207Y-72128814D02*
G01*
X188686400Y-72255336D01*
X188701941Y-72316015D01*
X188675037Y-72338876D01*
X188588333Y-72351490D01*
X188580035Y-72351362D01*
X188486487Y-72317447D01*
X188425244Y-72209590D01*
X188381920Y-72117920D01*
X188314237Y-72076734D01*
X188187876Y-72067691D01*
X188173576Y-72067726D01*
X188056717Y-72077109D01*
X187999157Y-72117469D01*
X187968808Y-72209590D01*
X187954330Y-72263773D01*
X187903660Y-72334347D01*
X187801620Y-72351490D01*
X187665598Y-72351490D01*
X187775870Y-72055866D01*
X187825934Y-71920944D01*
X187867136Y-71808900D01*
X188103470Y-71808900D01*
X188114585Y-71865514D01*
X188197692Y-71878492D01*
X188218417Y-71878360D01*
X188280981Y-71867642D01*
X188292437Y-71820614D01*
X188263182Y-71710624D01*
X188237114Y-71637483D01*
X188200279Y-71594064D01*
X188161375Y-71637948D01*
X188113241Y-71772067D01*
X188103470Y-71808900D01*
X187867136Y-71808900D01*
X187913821Y-71681948D01*
X187992937Y-71464618D01*
X187995328Y-71458038D01*
X188079960Y-71272241D01*
X188164068Y-71175928D01*
X188245130Y-71170688D01*
X188320622Y-71258112D01*
X188338589Y-71296853D01*
X188386272Y-71414749D01*
X188448893Y-71579416D01*
X188518335Y-71768331D01*
X188537023Y-71820614D01*
X188586479Y-71958971D01*
X188645207Y-72128814D01*
G37*
G36*
X203578373Y-73155590D02*
G01*
X203608242Y-73170085D01*
X203628502Y-73222230D01*
X203640859Y-73326252D01*
X203647021Y-73496377D01*
X203648696Y-73746834D01*
X203648696Y-73752054D01*
X203646956Y-74000964D01*
X203640699Y-74169794D01*
X203628216Y-74272772D01*
X203607801Y-74324126D01*
X203577746Y-74338082D01*
X203577120Y-74338078D01*
X203547251Y-74323583D01*
X203526991Y-74271438D01*
X203514634Y-74167417D01*
X203508471Y-73997291D01*
X203506797Y-73746834D01*
X203506797Y-73741614D01*
X203508537Y-73492705D01*
X203514794Y-73323875D01*
X203527276Y-73220896D01*
X203547692Y-73169543D01*
X203577746Y-73155587D01*
X203578373Y-73155590D01*
G37*
G36*
X210500900Y-73158880D02*
G01*
X210527686Y-73192164D01*
X210544054Y-73273864D01*
X210552237Y-73419349D01*
X210554469Y-73643990D01*
X210554469Y-73645292D01*
X210552712Y-73868322D01*
X210544954Y-74017619D01*
X210527433Y-74113924D01*
X210496384Y-74177976D01*
X210448044Y-74230515D01*
X210350939Y-74302978D01*
X210247020Y-74351523D01*
X210206314Y-74361207D01*
X210113271Y-74376082D01*
X210034002Y-74363513D01*
X209918209Y-74318436D01*
X209898472Y-74309949D01*
X209793487Y-74249527D01*
X209723329Y-74166744D01*
X209681394Y-74043636D01*
X209661077Y-73862236D01*
X209655772Y-73604576D01*
X209656751Y-73429097D01*
X209662397Y-73281984D01*
X209675848Y-73199818D01*
X209700199Y-73166138D01*
X209738547Y-73164484D01*
X209758593Y-73170643D01*
X209791627Y-73204174D01*
X209812936Y-73279634D01*
X209826187Y-73414579D01*
X209835044Y-73626565D01*
X209839672Y-73732560D01*
X209855043Y-73920154D01*
X209876187Y-74062330D01*
X209899961Y-74134498D01*
X209948621Y-74169515D01*
X210072618Y-74193958D01*
X210212543Y-74176204D01*
X210326070Y-74117902D01*
X210337139Y-74107218D01*
X210375283Y-74049334D01*
X210398284Y-73958854D01*
X210409570Y-73815153D01*
X210412570Y-73597604D01*
X210412681Y-73542934D01*
X210416601Y-73349540D01*
X210428006Y-73231153D01*
X210449459Y-73171819D01*
X210483519Y-73155587D01*
X210500900Y-73158880D01*
G37*
G36*
X194698896Y-71709903D02*
G01*
X194702004Y-71883198D01*
X194701718Y-72075914D01*
X194697102Y-72218728D01*
X194688555Y-72289325D01*
X194639883Y-72324347D01*
X194516244Y-72344966D01*
X194308467Y-72351490D01*
X194242313Y-72351331D01*
X194086054Y-72347202D01*
X193998665Y-72333549D01*
X193960581Y-72305177D01*
X193952234Y-72256890D01*
X193953246Y-72235009D01*
X193976133Y-72188411D01*
X194046880Y-72167271D01*
X194188733Y-72162290D01*
X194305522Y-72160697D01*
X194388296Y-72146280D01*
X194420065Y-72104392D01*
X194425232Y-72020391D01*
X194424934Y-71989921D01*
X194411279Y-71914461D01*
X194357349Y-71884095D01*
X194236033Y-71878492D01*
X194219557Y-71878449D01*
X194105870Y-71870290D01*
X194057161Y-71836428D01*
X194046834Y-71760242D01*
X194046901Y-71749944D01*
X194059956Y-71678890D01*
X194114135Y-71648447D01*
X194236033Y-71641993D01*
X194252510Y-71641950D01*
X194366196Y-71633791D01*
X194414906Y-71599929D01*
X194425232Y-71523743D01*
X194422745Y-71474471D01*
X194398113Y-71428247D01*
X194327026Y-71409206D01*
X194185444Y-71405493D01*
X194090485Y-71404428D01*
X193995830Y-71393456D01*
X193960011Y-71361850D01*
X193960770Y-71299069D01*
X193965326Y-71273094D01*
X193987309Y-71228954D01*
X194041708Y-71204807D01*
X194149243Y-71194691D01*
X194330633Y-71192644D01*
X194685381Y-71192644D01*
X194698896Y-71709903D01*
G37*
G36*
X209840732Y-72351490D02*
G01*
X209704711Y-72351490D01*
X209652182Y-72348801D01*
X209576473Y-72312112D01*
X209537523Y-72209590D01*
X209535106Y-72198797D01*
X209503640Y-72112104D01*
X209442119Y-72075330D01*
X209318455Y-72067691D01*
X209194074Y-72076275D01*
X209125497Y-72116545D01*
X209081087Y-72209590D01*
X209077392Y-72219897D01*
X209014656Y-72321962D01*
X208917998Y-72351490D01*
X208844779Y-72343087D01*
X208804390Y-72316015D01*
X208810102Y-72289064D01*
X208841902Y-72186447D01*
X208894519Y-72031405D01*
X208959834Y-71846460D01*
X208964038Y-71834891D01*
X209212573Y-71834891D01*
X209233954Y-71872033D01*
X209308639Y-71878492D01*
X209348719Y-71877130D01*
X209403051Y-71851268D01*
X209393089Y-71772067D01*
X209360553Y-71674910D01*
X209319203Y-71599453D01*
X209282455Y-71612336D01*
X209243149Y-71710624D01*
X209234098Y-71740414D01*
X209212573Y-71834891D01*
X208964038Y-71834891D01*
X209029729Y-71654135D01*
X209096085Y-71476954D01*
X209150784Y-71337438D01*
X209185708Y-71258112D01*
X209187757Y-71254329D01*
X209263443Y-71169564D01*
X209344626Y-71177417D01*
X209428784Y-71276298D01*
X209513394Y-71464618D01*
X209562399Y-71599540D01*
X209649998Y-71838536D01*
X209654712Y-71851268D01*
X209730461Y-72055866D01*
X209840732Y-72351490D01*
G37*
G36*
X189957872Y-72351490D02*
G01*
X189910644Y-72348676D01*
X189863640Y-72322243D01*
X189840130Y-72248244D01*
X189827797Y-72103166D01*
X189813501Y-71854842D01*
X189655719Y-72103166D01*
X189554754Y-72246837D01*
X189467557Y-72327890D01*
X189383745Y-72351490D01*
X189361978Y-72351323D01*
X189295939Y-72342173D01*
X189278424Y-72306087D01*
X189309902Y-72225260D01*
X189390841Y-72081889D01*
X189512129Y-71874926D01*
X189405031Y-71788203D01*
X189326425Y-71689184D01*
X189301179Y-71547393D01*
X189577002Y-71547393D01*
X189577866Y-71573733D01*
X189609644Y-71650491D01*
X189707076Y-71680609D01*
X189782954Y-71683675D01*
X189827909Y-71649342D01*
X189837151Y-71547393D01*
X189832177Y-71461523D01*
X189797500Y-71414301D01*
X189707076Y-71414177D01*
X189678211Y-71418284D01*
X189597800Y-71456425D01*
X189577002Y-71547393D01*
X189301179Y-71547393D01*
X189297933Y-71529161D01*
X189298343Y-71502553D01*
X189324137Y-71361685D01*
X189400308Y-71268338D01*
X189541187Y-71211742D01*
X189761103Y-71181131D01*
X190073650Y-71156043D01*
X190073650Y-72351490D01*
X189957872Y-72351490D01*
G37*
G36*
X204396632Y-72121951D02*
G01*
X204437721Y-72250731D01*
X204452793Y-72309288D01*
X204425850Y-72336498D01*
X204339171Y-72351490D01*
X204330873Y-72351362D01*
X204237325Y-72317447D01*
X204176082Y-72209590D01*
X204141795Y-72131532D01*
X204076785Y-72079602D01*
X203956145Y-72067691D01*
X203860317Y-72073580D01*
X203784320Y-72112626D01*
X203736208Y-72209590D01*
X203732513Y-72219897D01*
X203669777Y-72321962D01*
X203573119Y-72351490D01*
X203499865Y-72341613D01*
X203459497Y-72309832D01*
X203463474Y-72288726D01*
X203492942Y-72191245D01*
X203544244Y-72039398D01*
X203609155Y-71855879D01*
X203619930Y-71826374D01*
X203865055Y-71826374D01*
X203883068Y-71870049D01*
X203956145Y-71878492D01*
X204025063Y-71871734D01*
X204047623Y-71831571D01*
X204025252Y-71730168D01*
X204013942Y-71693102D01*
X203976771Y-71595171D01*
X203945583Y-71540246D01*
X203932495Y-71551647D01*
X203932348Y-71553800D01*
X203918349Y-71615645D01*
X203888497Y-71725079D01*
X203865055Y-71826374D01*
X203619930Y-71826374D01*
X203679452Y-71663378D01*
X203746911Y-71484585D01*
X203803306Y-71342192D01*
X203840413Y-71258890D01*
X203884297Y-71206920D01*
X203975257Y-71168994D01*
X203999091Y-71174247D01*
X204045669Y-71217289D01*
X204100018Y-71314043D01*
X204168479Y-71476847D01*
X204257391Y-71718040D01*
X204261159Y-71728634D01*
X204297183Y-71831571D01*
X204335715Y-71941677D01*
X204396632Y-72121951D01*
G37*
G36*
X197152250Y-73968497D02*
G01*
X197104450Y-74068899D01*
X197007802Y-74177263D01*
X196982339Y-74202334D01*
X196874428Y-74290012D01*
X196764448Y-74329130D01*
X196606500Y-74338082D01*
X196459147Y-74329997D01*
X196334124Y-74290970D01*
X196217295Y-74205198D01*
X196151626Y-74133642D01*
X196060554Y-73948719D01*
X196036190Y-73757903D01*
X196222625Y-73757903D01*
X196223981Y-73812222D01*
X196254971Y-73962683D01*
X196338725Y-74080083D01*
X196424679Y-74147779D01*
X196579394Y-74197832D01*
X196729579Y-74174886D01*
X196859344Y-74091150D01*
X196952796Y-73958830D01*
X196994042Y-73790137D01*
X196967192Y-73597279D01*
X196891949Y-73450248D01*
X196767328Y-73343245D01*
X196622368Y-73305068D01*
X196476243Y-73331582D01*
X196348127Y-73418650D01*
X196257197Y-73562136D01*
X196222625Y-73757903D01*
X196036190Y-73757903D01*
X196033958Y-73740423D01*
X196069304Y-73533960D01*
X196164055Y-73354530D01*
X196315677Y-73227337D01*
X196429823Y-73182373D01*
X196661466Y-73161530D01*
X196884300Y-73226266D01*
X196922662Y-73247386D01*
X197066329Y-73368361D01*
X197144804Y-73533311D01*
X197168622Y-73762089D01*
X197168280Y-73790137D01*
X197167754Y-73833324D01*
X197152250Y-73968497D01*
G37*
G36*
X211500465Y-70317598D02*
G01*
X211500465Y-69126574D01*
X212351862Y-69126574D01*
X212351878Y-69128250D01*
X212381254Y-69228309D01*
X212449895Y-69341573D01*
X212465364Y-69359919D01*
X212595718Y-69446691D01*
X212740956Y-69459569D01*
X212875886Y-69407404D01*
X212975317Y-69299046D01*
X213014059Y-69143347D01*
X213007315Y-69087232D01*
X212939943Y-68950569D01*
X212824144Y-68845816D01*
X212689587Y-68804004D01*
X212604730Y-68825761D01*
X212486060Y-68906256D01*
X212390865Y-69016943D01*
X212351862Y-69126574D01*
X211500465Y-69126574D01*
X211500465Y-66060615D01*
X213250558Y-66060615D01*
X213276935Y-66090967D01*
X213363016Y-66107914D01*
X213363400Y-66107914D01*
X213431589Y-66112136D01*
X213485743Y-66131380D01*
X213527733Y-66175594D01*
X213559429Y-66254724D01*
X213582701Y-66378716D01*
X213599420Y-66557518D01*
X213611455Y-66801074D01*
X213620677Y-67119333D01*
X213628957Y-67522240D01*
X213631596Y-67661124D01*
X213639765Y-68036527D01*
X213649761Y-68333263D01*
X213664082Y-68563392D01*
X213685226Y-68738972D01*
X213715688Y-68872062D01*
X213757966Y-68974720D01*
X213814558Y-69059005D01*
X213887959Y-69136976D01*
X213895015Y-69143347D01*
X213980668Y-69220690D01*
X214020865Y-69253417D01*
X214176350Y-69352024D01*
X214326008Y-69414607D01*
X214481050Y-69450313D01*
X214872254Y-69491141D01*
X215230170Y-69456464D01*
X215546012Y-69348827D01*
X215810999Y-69170773D01*
X216016347Y-68924847D01*
X216159497Y-68693443D01*
X216174706Y-67400679D01*
X216189915Y-66107914D01*
X216375730Y-66107914D01*
X216415146Y-66106836D01*
X216519633Y-66090453D01*
X216561545Y-66060615D01*
X216558739Y-66055625D01*
X216490738Y-66037810D01*
X216337458Y-66024511D01*
X216106320Y-66016191D01*
X215804748Y-66013315D01*
X215724916Y-66013490D01*
X215439878Y-66017740D01*
X215227089Y-66027320D01*
X215093973Y-66041766D01*
X215047951Y-66060615D01*
X215052776Y-66071217D01*
X215118673Y-66097424D01*
X215237151Y-66107914D01*
X215426350Y-66107914D01*
X215426086Y-67373184D01*
X215425719Y-67540582D01*
X215422038Y-67925694D01*
X215414698Y-68256702D01*
X215404059Y-68523488D01*
X215390481Y-68715935D01*
X215374327Y-68823926D01*
X215335244Y-68931698D01*
X215203862Y-69124127D01*
X215023096Y-69257310D01*
X214809604Y-69331325D01*
X214580041Y-69346251D01*
X214351063Y-69302167D01*
X214139327Y-69199152D01*
X213961489Y-69037284D01*
X213834204Y-68816642D01*
X213828528Y-68801635D01*
X213801771Y-68717556D01*
X213781500Y-68619938D01*
X213766851Y-68495272D01*
X213756961Y-68330050D01*
X213750966Y-68110763D01*
X213748002Y-67823902D01*
X213747206Y-67455959D01*
X213747545Y-67205044D01*
X213750407Y-66865066D01*
X213757849Y-66603328D01*
X213771843Y-66409687D01*
X213794356Y-66274000D01*
X213827361Y-66186122D01*
X213872826Y-66135911D01*
X213932723Y-66113223D01*
X214009020Y-66107914D01*
X214009415Y-66107914D01*
X214108191Y-66093976D01*
X214149255Y-66060615D01*
X214142094Y-66051187D01*
X214064096Y-66031166D01*
X213911858Y-66018032D01*
X213699907Y-66013315D01*
X213610348Y-66014068D01*
X213420149Y-66022279D01*
X213295377Y-66038304D01*
X213250558Y-66060615D01*
X211500465Y-66060615D01*
X211500465Y-65114618D01*
X217412942Y-65114618D01*
X217412942Y-70317598D01*
X211500465Y-70317598D01*
G37*
G36*
X207654509Y-73172449D02*
G01*
X207656196Y-73177932D01*
X207642837Y-73248147D01*
X207602977Y-73380299D01*
X207544147Y-73553930D01*
X207473879Y-73748583D01*
X207399703Y-73943800D01*
X207329149Y-74119124D01*
X207269749Y-74254097D01*
X207229033Y-74328262D01*
X207199364Y-74357857D01*
X207166506Y-74358738D01*
X207128238Y-74314331D01*
X207078054Y-74213654D01*
X207009449Y-74045720D01*
X206915917Y-73799545D01*
X206847563Y-73614815D01*
X206778038Y-73415804D01*
X206739803Y-73283009D01*
X206730344Y-73203796D01*
X206747145Y-73165533D01*
X206787689Y-73155587D01*
X206806190Y-73165398D01*
X206861625Y-73246955D01*
X206933579Y-73400388D01*
X207015581Y-73612721D01*
X207178967Y-74069855D01*
X207336827Y-73632065D01*
X207345446Y-73608318D01*
X207441554Y-73369292D01*
X207523425Y-73219396D01*
X207593572Y-73154994D01*
X207654509Y-73172449D01*
G37*
G36*
X202998324Y-72351313D02*
G01*
X202832718Y-72345679D01*
X202658811Y-72316188D01*
X202522479Y-72255678D01*
X202388721Y-72142554D01*
X202283498Y-71959468D01*
X202252149Y-71753136D01*
X202258554Y-71723822D01*
X202515141Y-71723822D01*
X202535244Y-71889545D01*
X202608100Y-72020391D01*
X202699802Y-72080916D01*
X202868249Y-72114991D01*
X203033799Y-72114991D01*
X203033799Y-71393038D01*
X202834434Y-71419778D01*
X202792213Y-71427020D01*
X202658142Y-71470799D01*
X202574285Y-71529646D01*
X202550938Y-71568898D01*
X202515141Y-71723822D01*
X202258554Y-71723822D01*
X202297280Y-71546594D01*
X202421496Y-71362876D01*
X202461515Y-71326600D01*
X202618955Y-71236672D01*
X202831514Y-71185922D01*
X203116573Y-71169515D01*
X203317597Y-71168994D01*
X203317597Y-72351490D01*
X202998324Y-72351313D01*
G37*
G36*
X202871328Y-74338082D02*
G01*
X202775239Y-74335241D01*
X202610412Y-74318578D01*
X202492952Y-74291961D01*
X202412148Y-74247819D01*
X202288979Y-74111310D01*
X202210322Y-73928629D01*
X202181918Y-73726908D01*
X202187986Y-73684322D01*
X202347633Y-73684322D01*
X202364386Y-73863607D01*
X202440025Y-74025943D01*
X202562571Y-74135846D01*
X202683457Y-74176209D01*
X202832774Y-74195485D01*
X202986499Y-74196182D01*
X202986499Y-73746834D01*
X202986468Y-73666805D01*
X202984611Y-73486596D01*
X202976432Y-73377280D01*
X202957207Y-73321137D01*
X202922214Y-73300445D01*
X202866730Y-73297486D01*
X202841781Y-73298035D01*
X202643314Y-73340537D01*
X202477369Y-73438900D01*
X202373657Y-73576322D01*
X202347633Y-73684322D01*
X202187986Y-73684322D01*
X202209510Y-73533275D01*
X202298839Y-73374861D01*
X202304124Y-73369204D01*
X202459572Y-73243853D01*
X202647451Y-73175985D01*
X202894978Y-73155587D01*
X203128398Y-73155587D01*
X203128398Y-74338082D01*
X202871328Y-74338082D01*
G37*
G36*
X201976746Y-73994362D02*
G01*
X202031012Y-74146169D01*
X202060890Y-74233202D01*
X202066583Y-74252331D01*
X202066441Y-74320844D01*
X202000058Y-74338082D01*
X201996131Y-74338021D01*
X201913903Y-74296952D01*
X201851303Y-74172533D01*
X201827343Y-74105155D01*
X201783943Y-74038253D01*
X201708866Y-74011710D01*
X201570679Y-74006983D01*
X201482900Y-74008101D01*
X201384954Y-74022548D01*
X201334279Y-74067593D01*
X201300696Y-74160383D01*
X201294492Y-74179362D01*
X201242218Y-74269733D01*
X201175810Y-74327573D01*
X201118745Y-74338385D01*
X201094506Y-74287674D01*
X201094507Y-74287520D01*
X201110154Y-74222325D01*
X201152393Y-74088113D01*
X201214808Y-73904380D01*
X201252036Y-73799911D01*
X201425605Y-73799911D01*
X201425613Y-73800099D01*
X201467782Y-73812596D01*
X201567504Y-73817784D01*
X201632529Y-73813756D01*
X201694278Y-73780944D01*
X201696248Y-73701106D01*
X201643275Y-73557635D01*
X201581414Y-73415736D01*
X201503509Y-73598886D01*
X201484479Y-73644168D01*
X201442394Y-73749388D01*
X201425605Y-73799911D01*
X201252036Y-73799911D01*
X201290982Y-73690622D01*
X201298438Y-73670168D01*
X201382475Y-73446116D01*
X201445291Y-73297263D01*
X201494469Y-73209928D01*
X201537593Y-73170426D01*
X201582247Y-73165075D01*
X201587006Y-73165935D01*
X201639839Y-73198229D01*
X201696755Y-73281409D01*
X201765124Y-73428813D01*
X201852319Y-73653779D01*
X201869719Y-73701106D01*
X201906690Y-73801668D01*
X201976746Y-73994362D01*
G37*
G36*
X210827680Y-69362291D02*
G01*
X210923768Y-69371312D01*
X211023475Y-69393626D01*
X211049563Y-69421416D01*
X211026872Y-69432124D01*
X210926655Y-69446811D01*
X210765410Y-69457382D01*
X210562581Y-69463871D01*
X210337610Y-69466309D01*
X210109943Y-69464730D01*
X209899021Y-69459167D01*
X209724290Y-69449653D01*
X209605193Y-69436220D01*
X209561173Y-69418901D01*
X209577133Y-69401863D01*
X209662763Y-69380110D01*
X209797672Y-69371601D01*
X210034171Y-69371601D01*
X210034171Y-67868063D01*
X209833395Y-67913175D01*
X209788098Y-67921375D01*
X209573429Y-67929370D01*
X209323678Y-67904504D01*
X209079006Y-67852436D01*
X208879572Y-67778821D01*
X208683540Y-67658549D01*
X208508446Y-67475869D01*
X208409688Y-67247474D01*
X208383985Y-67008626D01*
X208925069Y-67008626D01*
X208940821Y-67237155D01*
X208988237Y-67422292D01*
X208990534Y-67427590D01*
X209092717Y-67569820D01*
X209252542Y-67694266D01*
X209384806Y-67752609D01*
X209594377Y-67800841D01*
X209804928Y-67811392D01*
X209975046Y-67779382D01*
X209976010Y-67778959D01*
X209998716Y-67741543D01*
X210015222Y-67647616D01*
X210026191Y-67487674D01*
X210032287Y-67252210D01*
X210034171Y-66931719D01*
X210034171Y-66107914D01*
X209784044Y-66107914D01*
X209631262Y-66119444D01*
X209379295Y-66190134D01*
X209167933Y-66314794D01*
X209021751Y-66481384D01*
X208983228Y-66570944D01*
X208939648Y-66774094D01*
X208925069Y-67008626D01*
X208383985Y-67008626D01*
X208378678Y-66959311D01*
X208381194Y-66873657D01*
X208435413Y-66594651D01*
X208562943Y-66373258D01*
X208767226Y-66205007D01*
X209051703Y-66085431D01*
X209102562Y-66073633D01*
X209254573Y-66052906D01*
X209460622Y-66035956D01*
X209704212Y-66022986D01*
X209968847Y-66014197D01*
X210238030Y-66009793D01*
X210495263Y-66009975D01*
X210724051Y-66014946D01*
X210907895Y-66024907D01*
X211030299Y-66040063D01*
X211074767Y-66060615D01*
X211051375Y-66080139D01*
X210956657Y-66100156D01*
X210813997Y-66107914D01*
X210553227Y-66107914D01*
X210559556Y-66931719D01*
X210578119Y-69347952D01*
X210827680Y-69362291D01*
G37*
G36*
X197772478Y-68530519D02*
G01*
X197668224Y-68720944D01*
X197462761Y-68992486D01*
X197219869Y-69225849D01*
X196965424Y-69393368D01*
X196761546Y-69470116D01*
X196443875Y-69517741D01*
X196119184Y-69495031D01*
X195820577Y-69401745D01*
X195596648Y-69261220D01*
X195365380Y-69050170D01*
X195158864Y-68798007D01*
X195001347Y-68530519D01*
X194947456Y-68407382D01*
X194909041Y-68287208D01*
X194886993Y-68153990D01*
X194876958Y-67980562D01*
X194874581Y-67739758D01*
X194876523Y-67519120D01*
X195430082Y-67519120D01*
X195434357Y-67952607D01*
X195458899Y-68226557D01*
X195527835Y-68602213D01*
X195635863Y-68902766D01*
X195786290Y-69136413D01*
X195982422Y-69311351D01*
X196004041Y-69325386D01*
X196172694Y-69396963D01*
X196383345Y-69416919D01*
X196468921Y-69412872D01*
X196732669Y-69347668D01*
X196950082Y-69201827D01*
X197122925Y-68973816D01*
X197252964Y-68662104D01*
X197254451Y-68657226D01*
X197298773Y-68442654D01*
X197326544Y-68165982D01*
X197338096Y-67853138D01*
X197333759Y-67530053D01*
X197313862Y-67222653D01*
X197278736Y-66956867D01*
X197228713Y-66758624D01*
X197151728Y-66572003D01*
X197011182Y-66334677D01*
X196843787Y-66176593D01*
X196638266Y-66088445D01*
X196383345Y-66060926D01*
X196221062Y-66067364D01*
X196066336Y-66099895D01*
X195934861Y-66168340D01*
X195825412Y-66262085D01*
X195671279Y-66481407D01*
X195551825Y-66771821D01*
X195470332Y-67121625D01*
X195430082Y-67519120D01*
X194876523Y-67519120D01*
X194876562Y-67514664D01*
X194885861Y-67337010D01*
X194906838Y-67201663D01*
X194943844Y-67081463D01*
X195001230Y-66949251D01*
X195004224Y-66942882D01*
X195177741Y-66630772D01*
X195379267Y-66384999D01*
X195631378Y-66177931D01*
X195682420Y-66144219D01*
X195992598Y-65999031D01*
X196313734Y-65939665D01*
X196634522Y-65961312D01*
X196943656Y-66059161D01*
X197229829Y-66228403D01*
X197481733Y-66464228D01*
X197688062Y-66761826D01*
X197837509Y-67116388D01*
X197909400Y-67465361D01*
X197922904Y-67842998D01*
X197921625Y-67853138D01*
X197876774Y-68208679D01*
X197772478Y-68530519D01*
G37*
G36*
X189049785Y-71191936D02*
G01*
X189067293Y-71243816D01*
X189076387Y-71345273D01*
X189079821Y-71511317D01*
X189080353Y-71756952D01*
X189080353Y-72351490D01*
X188840943Y-72351490D01*
X188854224Y-71772067D01*
X188859621Y-71559404D01*
X188867189Y-71385248D01*
X188879182Y-71275985D01*
X188898821Y-71215611D01*
X188929330Y-71188127D01*
X188973929Y-71177530D01*
X188978498Y-71176886D01*
X189021106Y-71174629D01*
X189049785Y-71191936D01*
G37*
G36*
X195323926Y-73754574D02*
G01*
X195322110Y-74002424D01*
X195315791Y-74170529D01*
X195303286Y-74273061D01*
X195282910Y-74324188D01*
X195252979Y-74338082D01*
X195222887Y-74329427D01*
X195191315Y-74265524D01*
X195182029Y-74125233D01*
X195181056Y-74033853D01*
X195166984Y-73949211D01*
X195120667Y-73917301D01*
X195022859Y-73912384D01*
X194943574Y-73906385D01*
X194771152Y-73840558D01*
X194656221Y-73713532D01*
X194619180Y-73559354D01*
X194771549Y-73559354D01*
X194829006Y-73677790D01*
X194917064Y-73738513D01*
X195047461Y-73770484D01*
X195110707Y-73767902D01*
X195159574Y-73743893D01*
X195178727Y-73674044D01*
X195182029Y-73533985D01*
X195175897Y-73398616D01*
X195141803Y-73314893D01*
X195059674Y-73296212D01*
X194909538Y-73327434D01*
X194861916Y-73347546D01*
X194785125Y-73437938D01*
X194771549Y-73559354D01*
X194619180Y-73559354D01*
X194614432Y-73539592D01*
X194614454Y-73531918D01*
X194633866Y-73364454D01*
X194699989Y-73256651D01*
X194828175Y-73194803D01*
X195033774Y-73165204D01*
X195323929Y-73144217D01*
X195323929Y-73741149D01*
X195323926Y-73754574D01*
G37*
G36*
X192184598Y-73170988D02*
G01*
X192235948Y-73191142D01*
X192249441Y-73224823D01*
X192245212Y-73248312D01*
X192190695Y-73286245D01*
X192060242Y-73297486D01*
X191871043Y-73297486D01*
X191871043Y-73817784D01*
X191870926Y-73915844D01*
X191868587Y-74111458D01*
X191860942Y-74235136D01*
X191845019Y-74303230D01*
X191817843Y-74332095D01*
X191776443Y-74338082D01*
X191758614Y-74337442D01*
X191723048Y-74324575D01*
X191700561Y-74282529D01*
X191688180Y-74194951D01*
X191682932Y-74045487D01*
X191681843Y-73817784D01*
X191681843Y-73297486D01*
X191488702Y-73297486D01*
X191443330Y-73296659D01*
X191337224Y-73279464D01*
X191315162Y-73238361D01*
X191320143Y-73229935D01*
X191391408Y-73199496D01*
X191547083Y-73178335D01*
X191792102Y-73165699D01*
X191903103Y-73162831D01*
X192079085Y-73162254D01*
X192184598Y-73170988D01*
G37*
G36*
X210554469Y-72351490D02*
G01*
X210436219Y-72351490D01*
X210388763Y-72349249D01*
X210341369Y-72325373D01*
X210321804Y-72255350D01*
X210317970Y-72114991D01*
X210317970Y-71878492D01*
X210128771Y-71878492D01*
X210019565Y-71873136D01*
X209955437Y-71845782D01*
X209939571Y-71783892D01*
X209950283Y-71729289D01*
X210004990Y-71697225D01*
X210128771Y-71689292D01*
X210169397Y-71689068D01*
X210270011Y-71678828D01*
X210310499Y-71638380D01*
X210317970Y-71547393D01*
X210315314Y-71477319D01*
X210291286Y-71427655D01*
X210221472Y-71408594D01*
X210081471Y-71405493D01*
X209986558Y-71404373D01*
X209891771Y-71392435D01*
X209852640Y-71357424D01*
X209844972Y-71287244D01*
X209846276Y-71245711D01*
X209862485Y-71202184D01*
X209913511Y-71179317D01*
X210019280Y-71170468D01*
X210199720Y-71168994D01*
X210554469Y-71168994D01*
X210554469Y-72351490D01*
G37*
G36*
X207926851Y-67790529D02*
G01*
X207925056Y-67998381D01*
X207913246Y-68149357D01*
X207884770Y-68275163D01*
X207832973Y-68407501D01*
X207751204Y-68578075D01*
X207624408Y-68800209D01*
X207405567Y-69080126D01*
X207158532Y-69298006D01*
X206899396Y-69437610D01*
X206771014Y-69472104D01*
X206524124Y-69499184D01*
X206255098Y-69494374D01*
X206001487Y-69459134D01*
X205800838Y-69394923D01*
X205627832Y-69288249D01*
X205405319Y-69093501D01*
X205204328Y-68858444D01*
X205051815Y-68611280D01*
X204956585Y-68378785D01*
X204869748Y-67993463D01*
X204868365Y-67939792D01*
X205453604Y-67939792D01*
X205464342Y-68198176D01*
X205488585Y-68401955D01*
X205559085Y-68672769D01*
X205665237Y-68931266D01*
X205793151Y-69143492D01*
X205930739Y-69285299D01*
X206089198Y-69362813D01*
X206341692Y-69405438D01*
X206384216Y-69407248D01*
X206651886Y-69381892D01*
X206868773Y-69284695D01*
X207045450Y-69108717D01*
X207192489Y-68847019D01*
X207226661Y-68753864D01*
X207281811Y-68531262D01*
X207326532Y-68261950D01*
X207357064Y-67976513D01*
X207369649Y-67705537D01*
X207360529Y-67479609D01*
X207360123Y-67475928D01*
X207309266Y-67102141D01*
X207245103Y-66806500D01*
X207161947Y-66572995D01*
X207054107Y-66385616D01*
X206915895Y-66228353D01*
X206873130Y-66189756D01*
X206773148Y-66123899D01*
X206650635Y-66088110D01*
X206469611Y-66069590D01*
X206331143Y-66067676D01*
X206073937Y-66114871D01*
X205864814Y-66236625D01*
X205696064Y-66438500D01*
X205559978Y-66726060D01*
X205524154Y-66865862D01*
X205491645Y-67089838D01*
X205468332Y-67360340D01*
X205455293Y-67652086D01*
X205453604Y-67939792D01*
X204868365Y-67939792D01*
X204859705Y-67603592D01*
X204922255Y-67223145D01*
X205053195Y-66866097D01*
X205248325Y-66546423D01*
X205503442Y-66278098D01*
X205814345Y-66075095D01*
X205860119Y-66053103D01*
X206033523Y-65984711D01*
X206202408Y-65952393D01*
X206415735Y-65945607D01*
X206659658Y-65966282D01*
X206944352Y-66052479D01*
X207208057Y-66214002D01*
X207469158Y-66459825D01*
X207563474Y-66568587D01*
X207733904Y-66815644D01*
X207845328Y-67077036D01*
X207906610Y-67377610D01*
X207924599Y-67705537D01*
X207926611Y-67742211D01*
X207926851Y-67790529D01*
G37*
G36*
X200430790Y-72351490D02*
G01*
X200237797Y-72340941D01*
X199988530Y-72278861D01*
X199813179Y-72159609D01*
X199709566Y-71981431D01*
X199676827Y-71751795D01*
X199940391Y-71751795D01*
X199962651Y-71893003D01*
X200028131Y-72018038D01*
X200119918Y-72083576D01*
X200297740Y-72114991D01*
X200479609Y-72114991D01*
X200479609Y-71405493D01*
X200319299Y-71405493D01*
X200268083Y-71407871D01*
X200094225Y-71462497D01*
X199980898Y-71580883D01*
X199940391Y-71751795D01*
X199676827Y-71751795D01*
X199675512Y-71742570D01*
X199691733Y-71605544D01*
X199783423Y-71420944D01*
X199951053Y-71284037D01*
X200188948Y-71198813D01*
X200491434Y-71169258D01*
X200716108Y-71168994D01*
X200716108Y-72351490D01*
X200430790Y-72351490D01*
G37*
G36*
X208430956Y-71244490D02*
G01*
X208598957Y-71367785D01*
X208714252Y-71536425D01*
X208757076Y-71738246D01*
X208737332Y-71912289D01*
X208651546Y-72124110D01*
X208509022Y-72279201D01*
X208467532Y-72303106D01*
X208327691Y-72338127D01*
X208118529Y-72341197D01*
X207994880Y-72333551D01*
X207889367Y-72316076D01*
X207838706Y-72282308D01*
X207819840Y-72223132D01*
X207816204Y-72182657D01*
X207833753Y-72140911D01*
X207900715Y-72126091D01*
X208039531Y-72128533D01*
X208209305Y-72121284D01*
X208361222Y-72062763D01*
X208446580Y-71942610D01*
X208473277Y-71754002D01*
X208460618Y-71632014D01*
X208387519Y-71492320D01*
X208249305Y-71421219D01*
X208045886Y-71418642D01*
X207956872Y-71427131D01*
X207863588Y-71413645D01*
X207811537Y-71359047D01*
X207795735Y-71320429D01*
X207813694Y-71266122D01*
X207907724Y-71215447D01*
X208015897Y-71182602D01*
X208230015Y-71178707D01*
X208430956Y-71244490D01*
G37*
G36*
X191199828Y-72140112D02*
G01*
X191240734Y-72263966D01*
X191256145Y-72321500D01*
X191229255Y-72340819D01*
X191142523Y-72351490D01*
X191134225Y-72351362D01*
X191040677Y-72317447D01*
X190979434Y-72209590D01*
X190936110Y-72117920D01*
X190868427Y-72076734D01*
X190742066Y-72067691D01*
X190727766Y-72067726D01*
X190610907Y-72077109D01*
X190553347Y-72117469D01*
X190522998Y-72209590D01*
X190508501Y-72263832D01*
X190457820Y-72334364D01*
X190355733Y-72351490D01*
X190219634Y-72351490D01*
X190388154Y-71890317D01*
X190417890Y-71808900D01*
X190657659Y-71808900D01*
X190668775Y-71865514D01*
X190751882Y-71878492D01*
X190772607Y-71878360D01*
X190835171Y-71867642D01*
X190846627Y-71820614D01*
X190817372Y-71710624D01*
X190791304Y-71637483D01*
X190754469Y-71594064D01*
X190715564Y-71637948D01*
X190667431Y-71772067D01*
X190657659Y-71808900D01*
X190417890Y-71808900D01*
X190436055Y-71759166D01*
X190508557Y-71560418D01*
X190567568Y-71398360D01*
X190603588Y-71299069D01*
X190621069Y-71260345D01*
X190700322Y-71182021D01*
X190792954Y-71177476D01*
X190870423Y-71251769D01*
X190892469Y-71301461D01*
X190941023Y-71424592D01*
X191004024Y-71592178D01*
X191073485Y-71782063D01*
X191087266Y-71820614D01*
X191141416Y-71972093D01*
X191199828Y-72140112D01*
G37*
G36*
X199486313Y-72351490D02*
G01*
X199131564Y-72351490D01*
X199067707Y-72351341D01*
X198911036Y-72347256D01*
X198823399Y-72333637D01*
X198785194Y-72305258D01*
X198776815Y-72256890D01*
X198777827Y-72235009D01*
X198800714Y-72188411D01*
X198871461Y-72167271D01*
X199013314Y-72162290D01*
X199130103Y-72160697D01*
X199212877Y-72146280D01*
X199244646Y-72104392D01*
X199249813Y-72020391D01*
X199249515Y-71989921D01*
X199235860Y-71914461D01*
X199181930Y-71884095D01*
X199060614Y-71878492D01*
X199044138Y-71878449D01*
X198930451Y-71870290D01*
X198881742Y-71836428D01*
X198871415Y-71760242D01*
X198871482Y-71749944D01*
X198884537Y-71678890D01*
X198938716Y-71648447D01*
X199060614Y-71641993D01*
X199077091Y-71641950D01*
X199190777Y-71633791D01*
X199239487Y-71599929D01*
X199249813Y-71523743D01*
X199247573Y-71476287D01*
X199223696Y-71428893D01*
X199153674Y-71409327D01*
X199013314Y-71405493D01*
X198918402Y-71404373D01*
X198823615Y-71392435D01*
X198784483Y-71357424D01*
X198776815Y-71287244D01*
X198778119Y-71245711D01*
X198794328Y-71202184D01*
X198845354Y-71179317D01*
X198951124Y-71170468D01*
X199131564Y-71168994D01*
X199486313Y-71168994D01*
X199486313Y-72351490D01*
G37*
G36*
X207951025Y-73166924D02*
G01*
X207983429Y-73189551D01*
X208005735Y-73244535D01*
X208020459Y-73347436D01*
X208030113Y-73513816D01*
X208037210Y-73759235D01*
X208041364Y-73959993D01*
X208042213Y-74137583D01*
X208036169Y-74248633D01*
X208021007Y-74308696D01*
X207994504Y-74333328D01*
X207954435Y-74338082D01*
X207920128Y-74334799D01*
X207891292Y-74313669D01*
X207873177Y-74259300D01*
X207863304Y-74156353D01*
X207859198Y-73989488D01*
X207858380Y-73743366D01*
X207858676Y-73592894D01*
X207861504Y-73393342D01*
X207869068Y-73265396D01*
X207883466Y-73194389D01*
X207906796Y-73165653D01*
X207941154Y-73164519D01*
X207951025Y-73166924D01*
G37*
%TD*%
M02*
