M48
; DRILL file {KiCad (6.0.5)} date qua 29 jun 2022 10:50:37
; FORMAT={-:-/ absolute / metric / decimal}
; #@! TF.CreationDate,2022-06-29T10:50:37+01:00
; #@! TF.GenerationSoftware,Kicad,Pcbnew,(6.0.5)
; #@! TF.FileFunction,Plated,1,2,PTH
FMAT,2
METRIC
; #@! TA.AperFunction,Plated,PTH,ViaDrill
T1C0.400
; #@! TA.AperFunction,Plated,PTH,ComponentDrill
T2C0.500
; #@! TA.AperFunction,Plated,PTH,ComponentDrill
T3C0.750
; #@! TA.AperFunction,Plated,PTH,ComponentDrill
T4C0.800
; #@! TA.AperFunction,Plated,PTH,ComponentDrill
T5C1.000
; #@! TA.AperFunction,Plated,PTH,ComponentDrill
T6C1.100
; #@! TA.AperFunction,Plated,PTH,ComponentDrill
T7C1.200
; #@! TA.AperFunction,Plated,PTH,ComponentDrill
T8C1.520
; #@! TA.AperFunction,Plated,PTH,ComponentDrill
T9C3.200
%
G90
G05
T1
X83.5Y-78.5
X83.5Y-102.0
X94.75Y-66.0
X97.0Y-104.5
X97.0Y-119.0
X107.25Y-131.5
X109.5Y-99.0
X118.75Y-65.75
X123.5Y-81.5
X130.0Y-100.0
X130.0Y-112.5
X131.5Y-118.0
X135.5Y-131.25
X136.0Y-118.0
X136.25Y-61.5
X146.0Y-98.0
X155.25Y-81.75
X156.25Y-118.25
X160.0Y-101.5
X164.75Y-131.25
X166.25Y-81.75
X176.75Y-61.5
X179.0Y-77.25
X179.0Y-87.75
X182.5Y-137.5
X195.0Y-70.3
X195.5Y-111.0
X200.25Y-112.5
X200.5Y-103.75
X208.25Y-85.0
X208.25Y-97.0
X209.0Y-61.5
X209.0Y-137.5
X209.5Y-115.4
X216.0Y-74.75
T2
X82.297Y-64.0
X82.297Y-136.0
X83.0Y-62.303
X83.0Y-65.697
X83.0Y-134.303
X83.0Y-137.697
X84.697Y-61.6
X84.697Y-66.4
X84.697Y-133.6
X84.697Y-138.4
X86.394Y-62.303
X86.394Y-65.697
X86.394Y-134.303
X86.394Y-137.697
X87.097Y-64.0
X87.097Y-136.0
X218.918Y-64.0
X218.918Y-136.0
X219.621Y-62.303
X219.621Y-65.697
X219.621Y-134.303
X219.621Y-137.697
X221.318Y-61.6
X221.318Y-66.4
X221.318Y-133.6
X221.318Y-138.4
X223.015Y-62.303
X223.015Y-65.697
X223.015Y-134.303
X223.015Y-137.697
X223.718Y-64.0
X223.718Y-136.0
T3
X101.46Y-74.28
X102.73Y-74.28
X104.0Y-74.28
X108.23Y-120.86
X108.23Y-126.14
X109.5Y-120.86
X109.5Y-126.14
X110.77Y-120.86
X110.77Y-126.14
X111.5Y-93.73
X111.5Y-101.0
X111.5Y-106.73
X112.77Y-93.73
X112.77Y-101.0
X112.77Y-106.73
X114.04Y-93.73
X114.04Y-101.0
X114.04Y-106.73
X115.87Y-126.14
X116.0Y-121.0
X117.14Y-126.14
X117.27Y-121.0
X118.41Y-126.14
X118.54Y-121.0
X138.595Y-74.46
X138.595Y-75.73
X138.595Y-77.0
X138.595Y-84.46
X138.595Y-85.73
X138.595Y-87.0
X140.46Y-104.14
X140.46Y-111.0
X141.73Y-104.14
X141.73Y-111.0
X143.0Y-104.14
X143.0Y-111.0
X146.595Y-79.46
X146.595Y-80.73
X146.595Y-82.0
X169.5Y-118.5
X169.5Y-119.77
X169.5Y-121.04
T4
X86.0Y-125.0
X89.0Y-102.19
X89.0Y-109.81
X89.0Y-114.19
X89.0Y-121.81
X90.153Y-93.0
X91.0Y-68.0
X91.0Y-73.0
X91.0Y-82.5
X91.0Y-86.5
X92.5Y-102.19
X92.5Y-109.81
X92.5Y-114.19
X92.5Y-121.81
X93.62Y-125.0
X93.62Y-130.5
X93.653Y-93.0
X95.855Y-69.0
X95.855Y-73.09
X95.855Y-75.09
X96.5Y-99.0
X98.0Y-125.0
X98.0Y-127.0
X98.62Y-82.5
X98.62Y-86.5
X98.62Y-130.5
X99.19Y-79.0
X99.25Y-92.5
X101.25Y-92.5
X101.5Y-99.0
X102.0Y-106.92
X102.0Y-114.54
X103.0Y-119.38
X103.0Y-127.0
X103.475Y-69.0
X106.0Y-106.92
X106.0Y-114.54
X106.81Y-79.0
X111.19Y-87.0
X111.47Y-82.0
X114.01Y-82.0
X116.55Y-75.0
X116.55Y-82.0
X117.23Y-98.73
X117.38Y-112.0
X117.42Y-93.73
X118.81Y-87.0
X120.04Y-105.0
X120.04Y-107.0
X123.0Y-79.0
X123.0Y-84.0
X124.17Y-75.0
X124.85Y-98.73
X125.0Y-107.0
X125.0Y-112.0
X125.04Y-93.73
X125.19Y-122.5
X125.19Y-126.0
X130.975Y-68.73
X132.62Y-107.0
X132.81Y-122.5
X132.81Y-126.0
X133.0Y-83.44
X133.0Y-91.06
X136.0Y-110.5
X136.0Y-115.5
X138.595Y-68.73
X140.0Y-122.0
X140.0Y-127.0
X147.0Y-120.0
X147.0Y-122.0
X147.0Y-128.653
X147.0Y-132.153
X147.19Y-108.0
X147.19Y-112.0
X154.81Y-108.0
X154.81Y-112.0
X155.0Y-123.69
X155.0Y-131.31
X159.0Y-123.69
X159.0Y-131.31
X163.0Y-117.19
X163.0Y-124.81
X166.25Y-105.19
X166.25Y-112.81
X168.5Y-126.675
X170.0Y-105.19
X170.0Y-112.81
X170.5Y-126.675
X170.5Y-131.5
X175.25Y-119.055
X175.25Y-126.675
X175.5Y-131.5
X177.69Y-111.0
X177.69Y-115.0
X179.5Y-124.667
X179.5Y-129.667
X185.0Y-131.0
X185.31Y-111.0
X185.31Y-115.0
X189.0Y-111.0
X189.0Y-113.5
X190.0Y-131.0
X192.5Y-122.0
X193.19Y-131.0
X197.0Y-127.0
X197.5Y-122.0
X200.81Y-131.0
X202.0Y-116.19
X202.0Y-123.81
X202.0Y-127.0
T5
X85.0Y-114.235
X85.0Y-116.775
X193.55Y-100.32
X203.55Y-100.32
T6
X179.47Y-69.0
X179.47Y-96.0
X189.63Y-69.0
X189.63Y-96.0
T7
X150.595Y-68.73
X150.595Y-71.27
X150.595Y-73.81
X150.595Y-87.73
X150.595Y-90.27
X150.595Y-92.81
X171.85Y-77.0
X171.85Y-87.0
X197.25Y-77.0
X197.25Y-87.0
X209.05Y-80.0
X209.05Y-100.32
T8
X219.25Y-80.0
X219.25Y-85.08
X219.25Y-100.75
X219.25Y-105.83
X219.25Y-110.91
T9
X84.697Y-64.0
X84.697Y-136.0
X221.318Y-64.0
X221.318Y-136.0
T0
M30
